<svg width="175" height="55" viewBox="0 0 175 55" fill="none" xmlns="http://www.w3.org/2000/svg">
<path d="M24.84 12.84V18C22.56 14.28 19.02 12 14.64 12C5.28 12 0 19.02 0 28.44C0 37.92 5.34 45.18 14.76 45.18C19.14 45.18 22.62 42.9 24.84 39.18V44.34H32.16V12.84H24.84ZM16.2 38.94C10.86 38.94 7.8 33.96 7.8 28.44C7.8 23.04 10.8 18.3 16.32 18.3C20.88 18.3 24.78 21.6 24.78 28.32C24.78 34.92 21.06 38.94 16.2 38.94Z" fill="black"/>
<path d="M37.6186 4.8C37.6186 7.5 39.5986 9.48 42.3586 9.48C44.9986 9.48 47.0986 7.5 47.0986 4.8C47.0986 2.1 44.9986 0 42.3586 0C39.5986 0 37.6186 2.1 37.6186 4.8ZM38.4586 12.84V44.34H46.2586V12.84H38.4586Z" fill="black"/>
<path d="M60.6445 20.64V12.84H52.8445V44.34H60.6445V26.34C60.6445 21.72 63.8245 19.86 66.8245 19.86C68.5645 19.86 70.3645 20.34 71.3245 20.7V12.3C66.2245 12.3 62.0245 15.36 60.6445 20.64Z" fill="black"/>
<path d="M73.2245 22.44C73.2245 32.22 79.9445 39.18 89.6045 39.18C99.3245 39.18 105.985 32.22 105.985 22.44C105.985 12.84 99.3245 6 89.6045 6C79.9445 6 73.2245 12.84 73.2245 22.44ZM98.1845 22.44C98.1845 28.56 94.8845 32.94 89.6045 32.94C84.2645 32.94 81.0245 28.56 81.0245 22.44C81.0245 16.56 84.2645 12.3 89.6045 12.3C94.8845 12.3 98.1845 16.56 98.1845 22.44Z" fill="black"/>
<path d="M127.743 12C123.183 12 119.463 14.7 117.483 19.02V12.84H109.683V54.84H117.483V38.7C119.703 42.6 123.843 45.18 128.223 45.18C136.743 45.18 142.683 38.52 142.683 28.98C142.683 18.96 136.503 12 127.743 12ZM126.363 39.3C121.143 39.3 117.483 34.92 117.483 28.68C117.483 22.26 121.143 17.76 126.363 17.76C131.343 17.76 134.883 22.38 134.883 28.92C134.883 35.04 131.343 39.3 126.363 39.3Z" fill="black"/>
<path d="M145.169 33.42C145.169 39.12 150.209 45.18 160.289 45.18C170.429 45.18 174.089 39.24 174.089 34.62C174.089 27.54 165.749 26.28 160.169 25.2C156.389 24.54 153.989 24 153.989 21.84C153.989 19.38 156.689 17.82 159.569 17.82C163.469 17.82 164.969 20.52 165.089 23.4H172.889C172.889 18.72 169.589 12 159.389 12C150.569 12 146.189 16.98 146.189 22.32C146.189 29.94 154.649 30.72 160.229 31.8C163.469 32.4 166.289 33.12 166.289 35.46C166.289 37.8 163.529 39.36 160.589 39.36C157.829 39.36 152.969 37.8 152.969 33.42H145.169Z" fill="black"/>
</svg>
