<?xml version="1.0" encoding="UTF-8" standalone="no"?>
<!DOCTYPE svg PUBLIC "-//W3C//DTD SVG 1.1//EN" "http://www.w3.org/Graphics/SVG/1.1/DTD/svg11.dtd">
<svg xmlns="http://www.w3.org/2000/svg" version="1.1" viewBox="0 0 512 512">
<g stroke-width="2.0" fill="none" stroke-linecap="butt">
<path stroke="#77bc65" vector-effect="non-scaling-stroke" d="
  M 460.94 512.00
  Q 454.46 470.16 439.86 430.42
  Q 430.30 404.42 415.43 381.07
  Q 408.36 369.96 399.23 360.56
  Q 393.04 354.20 391.86 353.38
  Q 387.36 350.25 381.29 351.00"
/>
<path stroke="#777761" vector-effect="non-scaling-stroke" d="
  M 381.29 351.00
  Q 380.59 350.21 380.50 349.75
  Q 377.28 333.90 371.07 319.16
  C 370.91 318.80 371.11 318.38 371.48 318.26
  Q 390.50 312.18 404.10 298.45
  Q 410.88 291.60 415.93 282.42
  Q 430.30 256.31 426.96 225.50
  Q 423.49 193.54 402.96 169.00"
/>
<path stroke="#f6f6d6" vector-effect="non-scaling-stroke" d="
  M 402.96 169.00
  Q 402.17 165.07 399.34 162.41
  Q 397.36 160.56 397.27 160.47
  Q 394.45 157.57 392.44 156.31
  Q 389.59 154.53 388.17 153.17
  C 388.02 153.03 388.09 152.77 388.30 152.69
  Q 388.67 152.53 388.91 152.21
  Q 389.21 151.82 389.13 151.10
  Q 388.77 147.76 387.19 145.81
  Q 383.45 141.22 376.81 138.19
  Q 375.31 137.50 375.71 139.50"
/>
<path stroke="#77af9d" vector-effect="non-scaling-stroke" d="
  M 375.71 139.50
  Q 373.85 128.53 367.59 119.38
  Q 365.79 116.74 363.81 115.44
  Q 357.99 111.58 350.25 108.71"
/>
<path stroke="#98e1ae" vector-effect="non-scaling-stroke" d="
  M 350.25 108.71
  Q 349.66 106.88 347.81 105.44
  Q 335.87 96.15 323.14 90.41
  Q 313.13 85.90 303.45 80.74
  C 303.17 80.59 302.83 80.58 302.54 80.71
  Q 289.68 86.57 276.56 83.94
  Q 237.62 76.14 200.75 86.54"
/>
<path stroke="#a3e1b5" vector-effect="non-scaling-stroke" d="
  M 200.75 86.54
  L 182.25 92.71"
/>
<path stroke="#77d4af" vector-effect="non-scaling-stroke" d="
  M 182.25 92.71
  Q 170.92 95.20 165.19 96.94
  Q 157.58 99.24 150.67 103.19
  C 149.97 103.60 150.00 104.64 150.72 105.15
  L 154.79 108.00"
/>
<path stroke="#99dca0" vector-effect="non-scaling-stroke" d="
  M 154.79 108.00
  Q 145.83 112.63 140.06 117.56
  Q 119.17 135.42 103.94 160.44
  Q 96.87 172.05 94.71 183.25"
/>
<path stroke="#afe08b" vector-effect="non-scaling-stroke" d="
  M 94.71 183.25
  Q 93.97 189.02 94.00 192.50
  Q 94.01 193.21 94.79 194.00"
/>
<path stroke="#77bc65" vector-effect="non-scaling-stroke" d="
  M 94.79 194.00
  Q 87.07 208.91 83.44 226.69
  Q 81.09 238.18 80.29 246.25"
/>
<path stroke="#8dc77a" vector-effect="non-scaling-stroke" d="
  M 80.29 246.25
  Q 79.48 253.23 79.79 260.25"
/>
<path stroke="#77c09a" vector-effect="non-scaling-stroke" d="
  M 79.79 260.25
  Q 80.19 297.74 87.50 332.25
  Q 88.78 338.31 89.00 340.46"
/>
<path stroke="#77dbb1" vector-effect="non-scaling-stroke" d="
  M 89.00 340.46
  Q 81.37 340.49 78.50 341.75
  Q 75.17 343.21 73.44 344.94
  Q 66.25 352.13 59.04 359.29
  Q 29.67 388.47 20.24 428.21
  Q 18.63 435.03 16.41 447.83
  Q 12.63 469.62 11.54 491.75"
/>
<path stroke="#98e1ae" vector-effect="non-scaling-stroke" d="
  M 11.54 491.75
  Q 10.35 501.84 9.94 512.00"
/>
<path stroke="#f5f5bb" vector-effect="non-scaling-stroke" d="
  M 18.80 262.63
  Q 16.56 272.26 17.50 280.50
  Q 17.84 283.49 18.24 293.10
  Q 18.25 293.27 18.32 293.37
  Q 18.49 293.66 18.67 293.39
  Q 18.75 293.28 18.76 293.09
  Q 19.10 286.30 19.04 279.50
  Q 19.02 277.65 19.70 274.10
  Q 20.69 268.92 19.09 262.63
  Q 18.94 262.04 18.80 262.63"
/>
<path stroke="#21a29e" vector-effect="non-scaling-stroke" d="
  M 350.25 108.71
  Q 348.69 108.81 347.25 108.21"
/>
<path stroke="#5fdabe" vector-effect="non-scaling-stroke" d="
  M 347.25 108.21
  Q 347.44 106.79 346.47 106.15
  Q 345.18 105.31 345.07 105.21
  Q 340.17 100.46 333.31 96.69
  Q 320.56 89.68 309.50 85.21"
/>
<path stroke="#50cdc9" vector-effect="non-scaling-stroke" d="
  M 309.50 85.21
  L 303.78 82.16
  C 303.19 81.85 302.49 81.82 301.86 82.09
  Q 291.67 86.31 281.25 85.46"
/>
<path stroke="#4dd5b6" vector-effect="non-scaling-stroke" d="
  M 281.25 85.46
  Q 254.89 81.45 249.56 81.44
  Q 225.88 81.40 202.00 87.00
  Q 201.33 87.16 200.75 86.54"
/>
<path stroke="#5bcdd0" vector-effect="non-scaling-stroke" d="
  M 281.25 85.46
  Q 278.83 87.55 278.31 90.50
  Q 277.66 94.26 277.51 94.78
  Q 275.55 101.26 275.19 108.96
  C 275.16 109.58 274.52 109.98 273.96 109.73
  Q 273.26 109.42 272.96 110.50"
/>
<path stroke="#2cc8b6" vector-effect="non-scaling-stroke" d="
  M 272.96 110.50
  Q 257.94 101.63 238.94 98.31
  Q 212.07 93.63 188.11 93.99
  Q 188.03 93.99 186.40 94.12
  Q 183.99 94.32 182.25 92.71"
/>
<path stroke="#6dd2d8" vector-effect="non-scaling-stroke" d="
  M 309.50 85.21
  Q 309.15 86.29 309.94 86.97
  Q 310.76 87.69 310.83 87.77
  Q 317.72 95.95 323.50 104.96"
/>
<path stroke="#2f9bb8" vector-effect="non-scaling-stroke" d="
  M 323.50 104.96
  Q 318.48 111.25 311.53 114.67
  Q 306.17 117.32 299.06 117.46
  Q 291.53 117.62 283.75 116.00
  Q 279.99 115.22 277.25 113.71"
/>
<path stroke="#2fc0ca" vector-effect="non-scaling-stroke" d="
  M 277.25 113.71
  L 272.96 110.50"
/>
<path stroke="#3ea8ac" vector-effect="non-scaling-stroke" d="
  M 347.25 108.21
  Q 335.95 105.84 328.50 105.50
  Q 324.69 105.32 323.50 104.96"
/>
<path stroke="#00959e" vector-effect="non-scaling-stroke" d="
  M 277.25 113.71
  Q 257.22 113.78 237.25 115.21"
/>
<path stroke="#008a94" vector-effect="non-scaling-stroke" d="
  M 237.25 115.21
  Q 230.26 115.46 219.00 116.50
  Q 195.97 118.63 175.50 127.54"
/>
<path stroke="#23c3a2" vector-effect="non-scaling-stroke" d="
  M 175.50 127.54
  Q 174.75 126.58 175.26 125.71
  Q 175.57 125.17 175.59 124.81
  Q 175.86 119.07 172.64 114.99
  Q 170.58 112.38 166.43 110.78
  Q 162.86 109.41 159.07 108.69
  Q 158.97 108.67 157.04 108.00
  Q 155.98 107.62 154.79 108.00"
/>
<path stroke="#7fb7c5" vector-effect="non-scaling-stroke" d="
  M 375.71 139.50
  L 376.75 149.71"
/>
<path stroke="#003950" vector-effect="non-scaling-stroke" d="
  M 376.75 149.71
  Q 375.86 149.56 375.50 150.21"
/>
<path stroke="#115472" vector-effect="non-scaling-stroke" d="
  M 375.50 150.21
  L 367.00 154.46"
/>
<path stroke="#12506c" vector-effect="non-scaling-stroke" d="
  M 367.00 154.46
  Q 349.96 164.17 334.00 175.53
  Q 319.29 186.01 317.73 187.16
  Q 307.32 194.79 300.31 202.06
  Q 293.32 209.32 288.85 218.33
  Q 287.89 220.28 287.96 222.50"
/>
<path stroke="#003950" vector-effect="non-scaling-stroke" d="
  M 287.96 222.50
  Q 284.88 221.17 282.00 221.50
  Q 281.44 221.57 281.50 222.21"
/>
<path stroke="#7fb7c5" vector-effect="non-scaling-stroke" d="
  M 281.50 222.21
  L 276.25 222.21"
/>
<path stroke="#003950" vector-effect="non-scaling-stroke" d="
  M 276.25 222.21
  Q 276.27 221.64 275.74 221.53
  Q 272.95 220.94 270.25 221.96"
/>
<path stroke="#005a79" vector-effect="non-scaling-stroke" d="
  M 270.25 221.96
  Q 270.49 220.95 269.71 220.94
  Q 268.92 220.93 268.81 220.90
  Q 267.20 220.43 268.59 219.09
  Q 269.52 218.18 268.25 217.96"
/>
<path stroke="#003950" vector-effect="non-scaling-stroke" d="
  M 268.25 217.96
  L 269.79 216.00"
/>
<path stroke="#006582" vector-effect="non-scaling-stroke" d="
  M 269.79 216.00
  Q 271.20 215.28 271.87 213.84
  Q 274.73 207.70 276.21 201.16
  Q 277.67 194.69 278.01 189.31
  Q 278.37 183.39 277.25 177.25
  Q 274.10 160.04 262.81 147.19
  Q 262.34 146.65 262.34 146.21
  C 262.35 145.90 262.23 145.64 262.04 145.56
  Q 259.44 144.44 255.69 141.56
  Q 251.94 138.69 244.72 136.16
  C 244.41 136.06 244.19 135.81 244.13 135.51
  Q 243.89 134.24 244.92 134.62
  Q 246.12 135.08 245.04 134.38
  Q 243.59 133.44 242.16 133.27
  C 241.71 133.22 241.44 132.73 241.63 132.32
  Q 243.05 129.25 240.60 126.99
  C 239.98 126.41 239.95 125.44 240.53 124.83
  Q 243.62 121.52 239.82 118.41
  Q 238.29 117.16 239.69 116.78
  C 239.96 116.71 240.10 116.44 239.99 116.24
  Q 239.21 114.80 237.25 115.21"
/>
<path stroke="#239286" vector-effect="non-scaling-stroke" d="
  M 175.50 127.54
  Q 157.28 136.96 141.00 149.46"
/>
<path stroke="#23c5a4" vector-effect="non-scaling-stroke" d="
  M 141.00 149.46
  Q 139.14 150.13 137.75 151.54"
/>
<path stroke="#39b66d" vector-effect="non-scaling-stroke" d="
  M 137.75 151.54
  Q 124.43 161.47 112.50 173.04"
/>
<path stroke="#5bcf7e" vector-effect="non-scaling-stroke" d="
  M 112.50 173.04
  Q 110.82 173.25 109.81 172.15
  C 109.59 171.90 109.30 171.75 109.01 171.73
  Q 104.81 171.46 102.32 168.73
  C 101.82 168.19 100.94 168.31 100.61 168.96
  Q 97.25 175.53 95.77 182.65
  Q 95.47 184.14 94.71 183.25"
/>
<path stroke="#002d46" vector-effect="non-scaling-stroke" d="
  M 269.79 216.00
  L 269.71 215.50"
/>
<path stroke="#7facbb" vector-effect="non-scaling-stroke" d="
  M 269.71 215.50
  Q 272.32 211.52 273.50 207.75
  Q 277.44 195.16 276.45 182.14
  Q 275.63 171.37 271.74 162.81
  Q 267.09 152.60 258.25 145.00
  Q 246.66 135.04 231.25 134.69
  Q 210.76 134.22 196.25 148.29"
/>
<path stroke="#008c96" vector-effect="non-scaling-stroke" d="
  M 196.25 148.29
  Q 173.69 145.18 151.00 147.25
  Q 147.18 147.60 141.00 149.46"
/>
<path stroke="#7f8089" vector-effect="non-scaling-stroke" d="
  M 269.71 215.50
  Q 265.37 220.14 257.81 223.06
  Q 242.04 229.16 226.75 226.75
  Q 221.29 225.89 215.75 222.54"
/>
<path stroke="#7fdfd9" vector-effect="non-scaling-stroke" d="
  M 215.75 222.54
  Q 207.26 216.39 200.81 208.36
  Q 194.17 200.10 191.23 190.96
  Q 186.11 174.99 190.94 158.19
  Q 192.41 153.06 196.25 148.29"
/>
<path stroke="#7f7f7f" vector-effect="non-scaling-stroke" d="
  M 255.31 155.69
  Q 242.47 146.17 225.98 148.32
  Q 209.15 150.51 201.31 164.81
  Q 196.25 174.05 197.05 184.13
  Q 197.81 193.65 203.68 201.86
  Q 211.10 212.22 223.66 215.79
  Q 231.20 217.94 238.47 217.25
  Q 246.38 216.50 252.94 212.44
  Q 266.09 204.29 268.67 189.95
  Q 270.42 180.19 267.15 171.28
  Q 263.72 161.92 255.31 155.69"
/>
<path stroke="#7f8089" vector-effect="non-scaling-stroke" d="
  M 402.96 169.00
  Q 398.63 164.30 392.06 158.19
  Q 385.32 151.91 376.75 149.71"
/>
<path stroke="#006064" vector-effect="non-scaling-stroke" d="
  M 215.75 222.54
  Q 216.72 224.43 218.75 225.29"
/>
<path stroke="#00828d" vector-effect="non-scaling-stroke" d="
  M 218.75 225.29
  Q 218.60 226.80 217.19 227.94
  Q 215.65 229.17 208.69 235.19
  Q 200.70 242.08 195.69 253.12
  Q 187.52 271.16 186.79 291.00"
/>
<path stroke="#00717b" vector-effect="non-scaling-stroke" d="
  M 186.79 291.00
  Q 186.20 306.15 192.69 320.81
  Q 199.21 335.55 194.69 351.73
  Q 191.49 363.21 182.31 371.81
  Q 179.39 374.55 176.00 375.04"
/>
<path stroke="#00a99e" vector-effect="non-scaling-stroke" d="
  M 176.00 375.04
  Q 173.90 373.70 171.19 370.56
  Q 154.52 351.32 145.66 328.14
  Q 145.21 326.97 144.68 328.11
  Q 140.12 337.93 131.39 347.37
  C 130.86 347.95 129.93 347.90 129.46 347.26
  Q 125.57 341.95 122.57 335.08
  Q 109.62 305.48 104.87 273.48
  Q 102.96 260.67 103.75 249.00
  Q 105.50 223.05 113.71 197.25"
/>
<path stroke="#17b07e" vector-effect="non-scaling-stroke" d="
  M 113.71 197.25
  Q 121.77 178.41 132.81 158.31
  Q 135.05 154.24 137.75 151.54"
/>
<path stroke="#00010a" vector-effect="non-scaling-stroke" d="
  M 240.07 150.62
  L 235.50 150.47
  Q 234.93 150.45 234.55 150.28
  Q 232.60 149.38 230.63 149.81
  Q 227.63 150.48 227.12 150.49
  Q 225.18 150.53 223.25 150.50
  Q 220.54 150.45 220.75 152.00
  Q 221.06 154.35 222.36 153.06
  C 222.60 152.82 222.89 152.67 223.18 152.66
  Q 231.11 152.16 239.04 151.54
  Q 239.35 151.51 239.96 151.54
  Q 241.03 151.59 240.84 151.10
  C 240.74 150.82 240.43 150.63 240.07 150.62"
/>
<path stroke="#111c2c" vector-effect="non-scaling-stroke" d="
  M 253.92 156.13
  Q 249.33 152.69 243.49 151.36
  C 243.16 151.28 242.83 151.34 242.57 151.51
  Q 241.22 152.40 242.76 152.68
  Q 243.09 152.74 243.71 152.57
  Q 244.61 152.32 245.01 153.09
  C 245.18 153.42 245.41 153.66 245.65 153.77
  Q 257.02 159.08 262.58 169.41
  Q 267.05 177.71 266.22 186.07
  Q 265.32 195.03 258.69 202.44
  Q 253.74 207.97 247.66 211.26
  Q 241.53 214.57 234.35 214.87
  Q 219.04 215.51 208.85 203.56
  Q 206.70 201.04 204.89 197.81
  Q 202.68 193.86 202.19 191.31
  Q 201.26 186.49 201.90 176.56
  Q 201.94 175.99 201.71 176.52
  Q 201.23 177.62 201.36 178.82
  C 201.40 179.19 201.31 179.52 201.13 179.72
  Q 200.24 180.71 199.76 178.73
  Q 199.46 177.45 198.91 178.65
  Q 197.79 181.10 198.30 183.85
  Q 198.84 186.70 198.85 186.80
  Q 200.40 198.75 208.31 205.94
  Q 215.41 212.39 222.81 214.44
  Q 228.58 216.04 235.62 215.92
  Q 242.73 215.81 248.14 213.70
  Q 261.51 208.47 266.16 193.72
  Q 268.78 185.41 267.00 175.75
  Q 265.74 168.91 261.97 163.99
  Q 258.69 159.70 253.92 156.13"
/>
<path stroke="#7f7f7f" vector-effect="non-scaling-stroke" d="
  M 253.59 160.15
  Q 246.28 154.06 236.75 153.26
  Q 218.32 151.73 208.11 166.60
  Q 203.10 173.90 203.16 182.66
  Q 203.19 186.25 203.19 186.84
  Q 203.19 189.59 203.69 191.31
  Q 207.10 203.22 216.66 209.01
  Q 224.27 213.61 233.48 213.65
  Q 242.75 213.69 250.94 208.44
  Q 257.79 204.05 261.57 197.17
  Q 265.24 190.50 265.00 182.65
  Q 264.60 169.32 253.59 160.15"
/>
<path stroke="#00010a" vector-effect="non-scaling-stroke" d="
  M 199.82 175.93
  Q 199.98 171.70 199.58 175.76
  Q 199.47 176.90 199.76 176.18
  Q 199.81 176.07 199.82 175.93"
/>
<path stroke="#014619" vector-effect="non-scaling-stroke" d="
  M 381.29 351.00
  Q 381.34 351.26 381.50 351.46"
/>
<path stroke="#1a512a" vector-effect="non-scaling-stroke" d="
  M 381.50 351.46
  L 381.46 355.00"
/>
<path stroke="#031831" vector-effect="non-scaling-stroke" d="
  M 381.46 355.00
  Q 380.83 352.96 380.06 350.97
  Q 379.25 348.89 378.87 346.91
  Q 376.17 332.78 370.04 319.75"
/>
<path stroke="#111d36" vector-effect="non-scaling-stroke" d="
  M 370.04 319.75
  Q 370.56 317.46 373.31 316.56
  Q 392.33 310.35 405.52 295.54
  Q 412.03 288.23 416.64 279.01
  Q 421.98 268.34 424.38 256.48
  Q 425.51 250.88 426.43 245.24
  Q 427.26 240.15 427.01 235.06
  Q 426.89 232.57 425.95 224.94
  Q 424.22 210.97 420.56 200.69
  Q 411.68 175.71 389.81 157.44
  Q 384.15 152.71 375.50 150.21"
/>
<path stroke="#133352" vector-effect="non-scaling-stroke" d="
  M 370.04 319.75
  L 367.00 318.79"
/>
<path stroke="#111c2c" vector-effect="non-scaling-stroke" d="
  M 367.00 318.79
  Q 360.81 318.76 354.74 320.00
  Q 352.13 320.54 353.98 318.62
  Q 357.30 315.18 360.63 311.16
  Q 364.19 306.85 366.47 303.05
  Q 372.49 293.03 375.09 281.50
  Q 375.11 281.40 375.57 280.05
  Q 375.98 278.88 375.47 277.69
  C 375.33 277.37 375.29 277.05 375.34 276.77
  Q 376.70 269.70 376.50 260.75
  Q 376.35 253.96 374.50 248.79"
/>
<path stroke="#233451" vector-effect="non-scaling-stroke" d="
  M 374.50 248.79
  Q 375.22 248.25 375.94 246.19
  Q 379.08 237.21 379.84 229.71
  Q 380.01 228.02 380.63 225.89
  Q 381.25 223.76 381.25 222.00
  Q 381.25 214.71 381.25 207.42
  Q 381.25 204.93 380.42 202.73
  Q 379.07 199.17 378.44 198.31
  Q 376.24 195.34 375.06 190.19
  Q 373.86 184.89 370.01 179.93
  Q 368.92 178.53 367.61 176.15
  Q 366.20 173.59 364.44 172.81
  Q 362.87 172.12 362.18 170.31
  Q 361.79 169.30 360.03 167.91
  L 355.44 164.31
  C 355.23 164.15 354.98 164.10 354.78 164.17
  Q 351.91 165.28 354.56 163.06
  Q 357.72 160.42 366.68 155.42
  Q 367.80 154.80 367.00 154.46"
/>
<path stroke="#111d36" vector-effect="non-scaling-stroke" d="
  M 200.90 189.06
  Q 200.80 187.93 200.72 186.81
  Q 200.66 185.97 200.23 186.46
  Q 199.75 187.00 199.78 189.37
  C 199.79 189.82 200.17 190.18 200.63 190.16
  Q 200.99 190.14 200.90 189.06"
/>
<path stroke="#179a67" vector-effect="non-scaling-stroke" d="
  M 113.71 197.25
  Q 112.83 197.72 111.94 199.44
  Q 106.56 209.77 88.19 243.19
  Q 82.73 253.12 79.79 260.25"
/>
<path stroke="#179632" vector-effect="non-scaling-stroke" d="
  M 80.29 246.25
  Q 81.16 245.61 81.25 245.00
  Q 82.32 237.99 84.44 227.69
  Q 87.92 210.72 95.11 195.73
  Q 95.20 195.54 95.63 194.97
  Q 96.21 194.20 95.00 193.96"
/>
<path stroke="#4fba58" vector-effect="non-scaling-stroke" d="
  M 95.00 193.96
  Q 103.18 183.02 112.50 173.04"
/>
<path stroke="#fdb79a" vector-effect="non-scaling-stroke" d="
  M 211.00 177.46
  Q 206.85 191.63 217.31 201.19
  Q 228.74 211.62 241.16 207.44
  Q 251.04 204.12 256.10 195.75
  Q 261.50 186.84 257.71 175.00"
/>
<path stroke="#fdc39f" vector-effect="non-scaling-stroke" d="
  M 257.71 175.00
  Q 254.52 166.29 246.94 162.56
  Q 232.91 155.68 219.83 164.83
  Q 213.12 169.53 211.00 177.46"
/>
<path stroke="#fc7c3b" vector-effect="non-scaling-stroke" d="
  M 257.71 175.00
  Q 256.31 175.59 256.19 177.18
  C 256.17 177.52 255.97 177.79 255.71 177.86
  L 249.96 179.25"
/>
<path stroke="#7e4420" vector-effect="non-scaling-stroke" d="
  M 249.96 179.25
  Q 247.18 170.08 237.70 168.24
  Q 230.65 166.87 225.03 171.29
  Q 216.89 177.70 219.79 188.00"
/>
<path stroke="#fc7c3b" vector-effect="non-scaling-stroke" d="
  M 219.79 188.00
  Q 219.49 188.55 219.44 189.18
  Q 219.40 189.65 219.17 189.26
  Q 218.43 188.04 218.19 186.68
  Q 217.91 185.17 217.48 184.07
  Q 216.91 182.60 216.78 181.00
  C 216.75 180.65 216.54 180.38 216.28 180.34
  L 213.97 179.99
  Q 213.41 179.90 213.13 179.71
  Q 212.38 179.20 212.56 180.00
  Q 212.68 180.55 212.24 180.41
  Q 211.70 180.23 211.97 179.24
  Q 212.55 177.14 211.00 177.46"
/>
<path stroke="#7e381b" vector-effect="non-scaling-stroke" d="
  M 249.96 179.25
  Q 251.15 184.74 248.94 188.94
  Q 246.28 193.99 240.44 197.19
  Q 234.52 200.42 227.50 196.75
  Q 222.56 194.16 219.79 188.00"
/>
<path stroke="#121826" vector-effect="non-scaling-stroke" d="
  M 374.50 248.79
  Q 374.17 248.51 373.80 248.28
  Q 373.47 248.07 373.01 248.01
  Q 343.80 244.30 316.75 246.00
  Q 315.08 246.10 316.25 246.96"
/>
<path stroke="#2d3a58" vector-effect="non-scaling-stroke" d="
  M 316.25 246.96
  Q 306.44 247.76 299.79 255.00"
/>
<path stroke="#121930" vector-effect="non-scaling-stroke" d="
  M 299.79 255.00
  Q 298.48 251.45 298.25 250.50
  Q 295.29 238.22 292.00 229.00
  Q 290.82 225.69 287.96 222.50"
/>
<path stroke="#7f7e65" vector-effect="non-scaling-stroke" d="
  M 243.99 174.74
  Q 240.62 173.09 238.50 177.00
  Q 236.57 180.56 238.27 184.34
  Q 239.30 186.61 241.09 187.33
  Q 243.42 188.26 245.69 186.19
  Q 249.84 182.38 247.55 178.22
  Q 246.25 175.85 243.99 174.74"
/>
<path stroke="#39af43" vector-effect="non-scaling-stroke" d="
  M 95.00 193.96
  L 94.79 194.00"
/>
<path stroke="#005b65" vector-effect="non-scaling-stroke" d="
  M 176.00 375.04
  Q 169.35 376.42 162.59 376.71
  Q 155.58 377.00 151.44 377.30
  Q 145.86 377.71 140.25 377.54"
/>
<path stroke="#019393" vector-effect="non-scaling-stroke" d="
  M 140.25 377.54
  L 138.03 376.51
  Q 137.61 376.31 137.82 376.73
  Q 138.21 377.54 137.96 378.50"
/>
<path stroke="#43b47a" vector-effect="non-scaling-stroke" d="
  M 137.96 378.50
  Q 137.33 377.65 136.60 376.89
  Q 121.47 360.85 104.75 346.46"
/>
<path stroke="#01ad9e" vector-effect="non-scaling-stroke" d="
  M 104.75 346.46
  Q 98.21 340.19 89.00 340.46"
/>
<path stroke="#00233d" vector-effect="non-scaling-stroke" d="
  M 268.25 217.96
  Q 265.22 220.87 261.41 222.63
  Q 256.47 224.92 251.26 226.32
  Q 245.37 227.90 240.70 228.49
  Q 229.44 229.91 218.75 225.29"
/>
<path stroke="#00233d" vector-effect="non-scaling-stroke" d="
  M 270.25 221.96
  Q 258.95 225.41 246.19 232.94
  Q 232.34 241.10 226.31 254.81
  Q 218.57 272.42 222.75 289.50
  Q 224.80 297.87 231.29 308.00"
/>
<path stroke="#0b3c5d" vector-effect="non-scaling-stroke" d="
  M 231.29 308.00
  Q 231.01 308.74 230.41 309.22
  C 230.16 309.43 230.02 309.72 230.05 309.99
  Q 231.38 322.21 236.23 333.51
  Q 238.01 337.67 244.25 351.00
  Q 247.56 358.08 251.44 368.91
  Q 251.46 368.99 252.78 371.98
  Q 253.76 374.22 253.77 376.75
  Q 253.78 381.06 258.00 381.29"
/>
<path stroke="#03395a" vector-effect="non-scaling-stroke" d="
  M 258.00 381.29
  Q 259.95 382.78 262.50 382.71"
/>
<path stroke="#004a6b" vector-effect="non-scaling-stroke" d="
  M 262.50 382.71
  Q 259.50 382.16 259.99 383.37
  Q 260.23 383.96 261.17 384.41
  Q 268.64 388.01 276.06 391.69
  Q 281.44 394.36 284.16 395.82
  Q 284.31 395.90 288.45 397.92
  Q 291.75 399.53 293.69 402.06
  Q 294.42 403.02 293.25 403.29"
/>
<path stroke="#005c7d" vector-effect="non-scaling-stroke" d="
  M 293.25 403.29
  Q 284.92 397.14 275.55 392.72
  Q 267.63 388.98 259.97 384.76
  Q 256.28 382.73 254.25 382.50
  Q 214.39 378.02 207.25 376.50
  Q 198.56 374.66 189.75 373.46"
/>
<path stroke="#004c6e" vector-effect="non-scaling-stroke" d="
  M 189.75 373.46
  Q 188.76 372.92 187.79 373.50"
/>
<path stroke="#003454" vector-effect="non-scaling-stroke" d="
  M 187.79 373.50
  Q 185.41 372.47 182.84 372.98
  Q 182.72 373.01 182.80 372.92
  Q 191.91 363.44 194.96 353.54
  Q 196.32 349.11 196.72 347.52
  Q 197.43 344.65 197.50 341.25
  Q 197.74 330.41 193.83 321.07
  Q 192.17 317.10 192.14 317.02
  Q 190.26 312.07 188.75 307.00
  Q 188.09 304.79 188.00 303.75
  Q 187.45 297.64 187.32 291.50
  Q 187.30 290.51 186.79 291.00"
/>
<path stroke="#7f8089" vector-effect="non-scaling-stroke" d="
  M 276.25 222.21
  Q 272.55 222.11 269.05 223.28
  Q 260.14 226.25 251.92 230.71
  Q 245.59 234.15 242.54 236.28
  Q 238.03 239.42 234.39 243.64
  Q 219.90 260.41 222.43 282.73
  Q 224.00 296.55 232.44 307.54
  Q 239.40 316.60 251.19 321.06
  Q 256.61 323.12 261.48 322.04
  Q 263.95 321.50 266.61 319.68
  Q 268.97 318.06 271.04 316.04
  Q 274.35 312.80 278.00 309.96"
/>
<path stroke="#1b233c" vector-effect="non-scaling-stroke" d="
  M 278.00 309.96
  Q 278.23 310.02 278.29 310.25"
/>
<path stroke="#7f8089" vector-effect="non-scaling-stroke" d="
  M 278.29 310.25
  Q 274.49 313.40 272.75 316.92
  Q 271.39 319.68 274.09 321.16
  Q 278.17 323.39 282.51 324.60
  Q 283.67 324.93 291.37 326.49
  Q 302.12 328.68 313.00 330.21"
/>
<path stroke="#71727a" vector-effect="non-scaling-stroke" d="
  M 313.00 330.21
  Q 322.29 331.84 346.50 334.75
  Q 353.76 335.62 358.76 335.61
  Q 362.75 335.61 364.77 333.87
  Q 367.40 331.60 367.48 327.50
  Q 367.56 323.58 366.75 319.75"
/>
<path stroke="#031831" vector-effect="non-scaling-stroke" d="
  M 366.75 319.75
  Q 368.18 320.00 368.29 321.23
  Q 368.42 322.65 368.44 322.74
  Q 369.46 327.17 367.76 331.14
  Q 366.79 333.41 365.07 334.83
  Q 363.11 336.46 360.75 336.75
  Q 357.99 337.09 353.73 336.59
  Q 348.87 336.02 348.76 336.01
  Q 320.42 333.25 292.47 327.83
  Q 284.25 326.24 284.02 326.18
  Q 279.81 325.17 275.85 323.37
  Q 272.85 322.01 271.25 319.75
  Q 270.82 319.14 271.03 318.28
  Q 271.15 317.77 270.75 318.06
  L 265.79 321.50"
/>
<path stroke="#0b1b34" vector-effect="non-scaling-stroke" d="
  M 265.79 321.50
  Q 260.48 324.49 255.75 323.50
  Q 241.36 320.48 231.29 308.00"
/>
<path stroke="#1b233c" vector-effect="non-scaling-stroke" d="
  M 299.79 255.00
  L 300.55 257.71
  C 300.63 258.00 300.59 258.33 300.42 258.61
  L 288.06 280.57
  Q 286.92 282.60 288.97 283.88
  Q 294.28 287.20 300.23 288.81
  Q 307.99 290.90 315.93 291.48
  Q 322.84 291.98 331.09 290.41
  Q 350.78 286.66 369.94 278.69
  Q 371.34 278.10 371.96 277.50"
/>
<path stroke="#00010a" vector-effect="non-scaling-stroke" d="
  M 371.96 277.50
  L 372.04 278.50"
/>
<path stroke="#71727a" vector-effect="non-scaling-stroke" d="
  M 372.04 278.50
  Q 351.05 288.05 329.25 291.75
  Q 321.65 293.04 313.74 292.22
  Q 306.77 291.49 301.29 290.04
  Q 295.31 288.44 289.50 285.25
  Q 287.55 284.18 286.71 282.75"
/>
<path stroke="#7f8089" vector-effect="non-scaling-stroke" d="
  M 286.71 282.75
  Q 287.38 279.31 288.81 276.81
  Q 293.94 267.87 299.24 259.18
  C 299.54 258.69 299.61 258.08 299.43 257.53
  Q 295.99 247.21 293.75 237.75
  Q 293.22 235.52 291.86 231.88
  Q 289.76 226.24 289.69 226.11
  Q 287.37 221.84 281.50 222.21"
/>
<path stroke="#f0f0ef" vector-effect="non-scaling-stroke" d="
  M 286.71 282.75
  Q 283.67 283.45 285.06 285.69
  Q 286.38 287.81 289.14 289.44
  Q 294.90 292.85 300.29 296.27
  Q 301.35 296.94 300.20 297.43
  Q 294.61 299.84 289.04 302.26
  Q 283.57 304.63 279.25 308.71"
/>
<path stroke="#9aa1b1" vector-effect="non-scaling-stroke" d="
  M 279.25 308.71
  L 278.00 309.96"
/>
<path stroke="#031727" vector-effect="non-scaling-stroke" d="
  M 367.00 318.79
  L 366.75 319.75"
/>
<path stroke="#717170" vector-effect="non-scaling-stroke" d="
  M 366.75 319.75
  Q 357.80 320.33 348.61 322.07
  Q 348.16 322.16 348.52 321.87
  Q 369.44 305.32 374.65 278.99
  C 374.71 278.70 374.54 278.42 374.27 278.35
  Q 373.17 278.08 372.04 278.50"
/>
<path stroke="#1b2232" vector-effect="non-scaling-stroke" d="
  M 371.96 277.50
  Q 363.27 269.64 352.15 266.13
  Q 347.93 264.80 347.88 264.78
  Q 343.06 263.15 338.25 261.50
  Q 328.03 257.98 320.69 250.06
  Q 318.59 247.80 316.25 246.96"
/>
<path stroke="#f0f0ef" vector-effect="non-scaling-stroke" d="
  M 313.00 330.21
  Q 311.78 327.21 312.56 325.56
  Q 316.04 318.20 320.46 310.73
  C 320.76 310.21 320.49 309.55 319.91 309.42
  Q 307.19 306.41 293.75 306.54
  Q 286.44 306.61 279.75 309.46"
/>
<path stroke="#8c93a2" vector-effect="non-scaling-stroke" d="
  M 279.75 309.46
  Q 279.76 308.90 279.25 308.71"
/>
<path stroke="#003c5c" vector-effect="non-scaling-stroke" d="
  M 187.79 373.50
  Q 186.89 376.57 184.69 382.69
  Q 178.40 400.19 173.23 420.10
  Q 173.22 420.16 172.61 421.84
  Q 172.04 423.41 172.73 424.88
  Q 173.54 426.63 173.57 426.72
  Q 178.09 440.43 180.04 454.75"
/>
<path stroke="#003151" vector-effect="non-scaling-stroke" d="
  M 180.04 454.75
  Q 183.17 476.92 183.31 499.51
  Q 183.32 500.67 184.09 499.78
  L 202.10 478.92
  Q 202.41 478.56 202.58 479.04
  L 206.93 491.60
  C 207.14 492.21 207.93 492.40 208.43 491.95
  Q 221.14 480.55 230.24 466.13
  Q 230.27 466.09 232.16 463.73
  Q 233.73 461.78 233.00 459.25
  Q 232.62 457.94 233.71 457.75"
/>
<path stroke="#004b6b" vector-effect="non-scaling-stroke" d="
  M 233.71 457.75
  L 234.63 461.92
  C 234.75 462.44 235.02 462.88 235.39 463.16
  Q 242.75 468.60 250.50 472.04"
/>
<path stroke="#003253" vector-effect="non-scaling-stroke" d="
  M 250.50 472.04
  Q 250.26 473.21 251.19 474.81
  Q 260.06 490.07 269.76 505.25
  Q 270.50 506.40 270.98 505.12
  Q 275.07 494.30 279.16 482.97
  Q 282.77 472.96 284.96 462.55
  C 285.03 462.21 285.25 461.95 285.52 461.86
  L 286.00 461.71"
/>
<path stroke="#004b6b" vector-effect="non-scaling-stroke" d="
  M 286.00 461.71
  Q 292.53 465.92 299.75 468.79"
/>
<path stroke="#002b4a" vector-effect="non-scaling-stroke" d="
  M 299.75 468.79
  Q 299.66 469.60 298.97 469.88
  C 298.71 469.98 298.57 470.25 298.64 470.49
  Q 303.11 486.33 310.70 501.59
  Q 311.60 503.41 312.33 501.52
  Q 317.56 487.89 320.66 471.33
  C 320.82 470.47 320.56 469.60 319.96 468.96
  Q 319.16 468.10 320.00 467.21"
/>
<path stroke="#003959" vector-effect="non-scaling-stroke" d="
  M 320.00 467.21
  Q 326.29 474.60 334.81 479.26
  C 335.05 479.39 335.35 479.29 335.46 479.04
  Q 337.08 475.29 338.00 469.00
  Q 340.16 454.20 340.50 446.79"
/>
<path stroke="#032948" vector-effect="non-scaling-stroke" d="
  M 340.50 446.79
  Q 341.92 445.87 342.36 447.44
  Q 342.53 448.07 342.29 449.05
  Q 341.70 451.47 341.58 453.94
  C 341.57 454.15 341.78 454.33 342.06 454.35
  L 345.27 454.54
  Q 346.46 454.61 345.76 453.64
  L 343.98 451.19
  C 343.79 450.93 343.83 450.57 344.07 450.37
  Q 344.53 449.97 344.94 450.56
  Q 351.73 460.48 358.56 467.44
  Q 359.43 468.32 360.34 467.54
  C 360.56 467.36 360.66 467.03 360.59 466.69
  Q 355.61 441.77 351.75 430.75
  Q 348.50 421.48 345.70 412.06
  Q 344.87 409.28 343.66 406.68
  Q 342.94 405.13 344.21 406.12
  Q 344.43 406.30 344.59 406.56
  Q 355.31 423.30 370.94 440.06
  Q 375.64 445.10 380.80 453.35
  Q 380.96 453.60 381.15 453.71
  Q 381.58 453.94 381.70 453.53
  Q 381.77 453.32 381.66 452.97
  Q 376.88 437.22 373.44 429.31
  Q 367.67 416.07 361.84 402.85
  Q 361.44 401.96 361.95 401.68
  C 362.18 401.55 362.53 401.66 362.77 401.94
  Q 369.43 409.53 376.56 416.69
  Q 383.18 423.33 391.01 428.51
  Q 391.58 428.88 391.37 428.24
  Q 386.50 412.86 383.75 396.75
  Q 381.93 386.07 374.80 366.37
  Q 374.71 366.13 374.51 365.79
  Q 373.91 364.79 375.21 365.25"
/>
<path stroke="#1a6241" vector-effect="non-scaling-stroke" d="
  M 375.21 365.25
  Q 383.51 386.74 387.25 409.50
  Q 387.96 413.82 392.06 427.05
  Q 395.01 436.56 395.98 441.08
  Q 397.51 448.22 398.25 455.50
  Q 401.09 483.69 402.19 512.00"
/>
<path stroke="#015c70" vector-effect="non-scaling-stroke" d="
  M 153.44 512.00
  Q 159.57 496.78 164.36 481.08
  Q 176.02 442.82 160.19 406.31
  Q 152.76 389.18 140.25 377.54"
/>
<path stroke="#9aa1b1" vector-effect="non-scaling-stroke" d="
  M 278.29 310.25
  L 279.75 309.46"
/>
<path stroke="#0e3151" vector-effect="non-scaling-stroke" d="
  M 265.79 321.50
  Q 266.17 321.44 266.25 321.67
  C 266.29 321.81 266.20 322.03 266.01 322.24
  Q 264.96 323.35 265.44 324.56
  Q 267.60 330.08 271.44 334.91
  Q 273.86 337.95 279.52 343.62
  Q 284.43 348.54 289.92 352.83
  Q 304.89 364.55 319.52 377.12
  Q 319.99 377.52 319.38 377.58
  Q 301.44 379.60 283.54 382.83
  Q 279.25 383.60 275.51 383.23
  Q 269.23 382.61 262.25 381.25
  Q 260.39 380.89 258.00 381.29"
/>
<path stroke="#1c6847" vector-effect="non-scaling-stroke" d="
  M 381.46 355.00
  L 383.00 362.27
  C 383.10 362.74 382.74 363.20 382.22 363.25
  Q 378.54 363.64 375.21 365.25"
/>
<path stroke="#033f5f" vector-effect="non-scaling-stroke" d="
  M 340.50 446.79
  Q 338.16 442.97 334.06 437.44
  Q 321.50 420.47 307.85 399.46
  Q 306.06 396.71 303.94 395.56
  Q 295.08 390.78 283.90 386.60
  Q 278.79 384.69 273.36 383.94
  Q 267.95 383.20 262.50 382.71"
/>
<path stroke="#43cf91" vector-effect="non-scaling-stroke" d="
  M 104.75 346.46
  Q 89.37 364.30 75.04 383.00"
/>
<path stroke="#05b285" vector-effect="non-scaling-stroke" d="
  M 75.04 383.00
  Q 74.14 382.88 73.70 383.59
  Q 73.26 384.29 73.21 384.35
  Q 69.23 389.05 65.95 394.26
  Q 65.73 394.62 65.25 394.90
  Q 64.67 395.24 64.28 395.79
  Q 53.41 410.73 46.21 427.75"
/>
<path stroke="#22ceb2" vector-effect="non-scaling-stroke" d="
  M 46.21 427.75
  L 45.59 426.53
  C 45.44 426.22 45.20 426.01 44.96 425.96
  Q 39.05 424.68 33.00 424.73
  Q 27.86 424.78 24.01 421.96
  C 23.67 421.71 23.18 421.88 23.07 422.30
  Q 16.29 448.54 13.82 475.50
  Q 13.57 478.22 12.87 482.96
  Q 12.10 488.18 12.50 490.50
  Q 12.94 493.08 11.54 491.75"
/>
<path stroke="#43b586" vector-effect="non-scaling-stroke" d="
  M 137.96 378.50
  Q 146.86 389.41 152.81 404.19
  Q 160.82 424.07 160.04 444.25"
/>
<path stroke="#47b861" vector-effect="non-scaling-stroke" d="
  M 160.04 444.25
  Q 159.19 461.88 151.35 477.64
  Q 144.62 491.19 136.19 501.69
  Q 131.30 507.78 128.69 512.00"
/>
<path stroke="#43b045" vector-effect="non-scaling-stroke" d="
  M 108.94 512.00
  Q 109.20 511.34 108.66 510.90
  Q 108.09 510.45 108.03 510.39
  Q 93.16 494.19 83.18 474.55
  Q 82.38 472.97 82.55 474.74
  Q 83.07 480.12 82.54 486.00"
/>
<path stroke="#58bb58" vector-effect="non-scaling-stroke" d="
  M 82.54 486.00
  Q 82.00 499.00 82.44 512.00"
/>
<path stroke="#43b76d" vector-effect="non-scaling-stroke" d="
  M 55.94 512.00
  Q 56.08 511.82 56.29 511.74
  C 56.51 511.66 56.64 511.47 56.59 511.29
  L 55.63 507.72
  Q 55.50 507.24 55.33 507.72
  Q 54.54 509.87 53.69 512.00"
/>
<path stroke="#43b877" vector-effect="non-scaling-stroke" d="
  M 42.19 512.00
  Q 42.14 499.76 44.41 487.74
  C 44.47 487.44 44.41 487.11 44.25 486.82
  L 41.75 482.21"
/>
<path stroke="#43b76d" vector-effect="non-scaling-stroke" d="
  M 41.75 482.21
  L 40.71 477.25"
/>
<path stroke="#47b861" vector-effect="non-scaling-stroke" d="
  M 40.71 477.25
  Q 40.99 467.86 43.94 456.69
  Q 50.81 430.64 60.50 408.79
  Q 66.53 395.19 75.04 383.00"
/>
<path stroke="#1a962f" vector-effect="non-scaling-stroke" d="
  M 459.94 512.00
  Q 459.61 507.84 458.75 503.77
  Q 457.20 496.52 457.05 495.66
  Q 454.42 481.05 450.06 465.69
  Q 443.20 441.46 434.16 419.54
  Q 425.17 397.74 412.11 378.11
  Q 402.34 363.44 390.44 353.56
  Q 386.93 350.65 381.50 351.46"
/>
<path stroke="#006485" vector-effect="non-scaling-stroke" d="
  M 189.75 373.46
  Q 189.17 373.48 188.71 373.76
  C 188.50 373.89 188.48 374.20 188.68 374.39
  Q 190.01 375.69 190.44 378.31
  Q 191.69 385.96 197.71 416.75"
/>
<path stroke="#004a6b" vector-effect="non-scaling-stroke" d="
  M 197.71 416.75
  Q 197.17 416.75 196.94 417.44
  Q 190.85 435.60 181.44 454.13
  Q 181.20 454.60 180.90 454.72
  Q 180.52 454.88 180.04 454.75"
/>
<path stroke="#006182" vector-effect="non-scaling-stroke" d="
  M 293.25 403.29
  Q 300.85 409.02 307.41 415.89
  C 307.64 416.13 307.77 416.45 307.77 416.76
  L 307.79 438.75"
/>
<path stroke="#005373" vector-effect="non-scaling-stroke" d="
  M 307.79 438.75
  Q 307.66 447.81 305.02 456.46
  Q 303.26 462.25 301.21 467.94
  Q 300.84 468.96 299.75 468.79"
/>
<path stroke="#005a7c" vector-effect="non-scaling-stroke" d="
  M 286.00 461.71
  Q 284.24 460.49 282.44 458.31
  Q 270.10 443.43 264.66 425.40
  Q 264.42 424.61 264.21 422.54
  Q 264.06 421.08 263.46 419.71
  Q 263.25 419.22 263.24 419.75
  Q 263.11 427.78 261.00 437.25
  Q 256.96 455.40 251.50 470.25
  Q 250.99 471.62 250.50 472.04"
/>
<path stroke="#00597a" vector-effect="non-scaling-stroke" d="
  M 233.71 457.75
  Q 229.60 442.98 227.25 436.25
  Q 223.70 426.11 221.62 415.58
  Q 220.88 411.84 221.25 409.00
  Q 221.33 408.39 221.19 408.09
  Q 220.86 407.38 220.76 408.31
  Q 220.56 410.20 220.25 411.25
  Q 215.00 428.91 206.47 445.32
  Q 205.63 446.92 205.17 445.18
  L 197.71 416.75"
/>
<path stroke="#059879" vector-effect="non-scaling-stroke" d="
  M 146.69 512.00
  Q 148.58 508.35 150.04 504.50"
/>
<path stroke="#019786" vector-effect="non-scaling-stroke" d="
  M 150.04 504.50
  Q 156.37 489.97 160.79 474.75"
/>
<path stroke="#019393" vector-effect="non-scaling-stroke" d="
  M 160.79 474.75
  Q 164.35 466.03 164.34 456.72
  Q 164.34 450.91 164.34 450.78
  Q 164.46 445.19 164.27 439.60
  Q 164.25 439.09 164.31 438.38
  Q 164.52 435.89 163.52 437.33
  C 163.35 437.58 163.29 437.91 163.35 438.24
  Q 164.52 443.98 162.66 449.53
  Q 162.57 449.82 162.61 450.48
  L 163.04 456.50"
/>
<path stroke="#019786" vector-effect="non-scaling-stroke" d="
  M 163.04 456.50
  Q 162.51 451.15 161.50 455.75
  Q 161.13 457.43 160.00 457.46"
/>
<path stroke="#059879" vector-effect="non-scaling-stroke" d="
  M 160.00 457.46
  Q 160.16 452.84 161.00 446.00
  Q 161.21 444.32 160.04 444.25"
/>
<path stroke="#059a61" vector-effect="non-scaling-stroke" d="
  M 40.71 477.25
  Q 40.94 473.63 38.19 471.56
  Q 36.71 470.44 35.13 471.05
  C 35.01 471.10 34.84 471.02 34.72 470.87
  Q 34.59 470.70 34.29 470.75"
/>
<path stroke="#26b882" vector-effect="non-scaling-stroke" d="
  M 34.29 470.75
  Q 38.07 448.64 46.21 427.75"
/>
<path stroke="#004161" vector-effect="non-scaling-stroke" d="
  M 320.00 467.21
  Q 313.89 458.04 309.49 447.94
  Q 308.54 445.78 308.48 444.03
  Q 308.40 441.96 308.86 439.92
  Q 309.35 437.79 307.79 438.75"
/>
<path stroke="#21b78e" vector-effect="non-scaling-stroke" d="
  M 34.29 470.75
  L 31.29 485.25"
/>
<path stroke="#22b898" vector-effect="non-scaling-stroke" d="
  M 31.29 485.25
  Q 28.71 499.19 22.69 512.00"
/>
<path stroke="#00967a" vector-effect="non-scaling-stroke" d="
  M 160.79 474.75
  Q 160.93 473.32 160.75 471.89
  Q 160.56 470.33 160.86 469.12
  Q 162.44 462.90 163.04 456.50"
/>
<path stroke="#059a61" vector-effect="non-scaling-stroke" d="
  M 160.00 457.46
  Q 157.66 467.26 153.43 476.38
  Q 152.76 477.81 152.38 479.63
  Q 152.02 481.32 151.47 482.97
  C 151.37 483.27 151.35 483.60 151.42 483.92
  Q 152.30 488.09 150.32 493.69
  C 150.15 494.16 150.44 494.67 150.93 494.76
  Q 152.07 494.99 152.35 496.06
  Q 152.52 496.70 152.12 497.76
  Q 150.86 501.07 150.04 504.50"
/>
<path stroke="#0e9d50" vector-effect="non-scaling-stroke" d="
  M 141.44 512.00
  Q 141.61 510.10 142.55 508.49
  C 142.71 508.20 142.80 507.88 142.79 507.56
  Q 142.74 505.20 143.30 502.95
  Q 144.20 499.31 144.32 498.46
  Q 144.83 494.88 145.36 491.30
  Q 145.44 490.81 145.13 491.20
  Q 140.03 497.70 135.01 504.26
  Q 134.98 504.30 133.40 506.16
  Q 131.27 508.66 130.69 512.00"
/>
<path stroke="#019a77" vector-effect="non-scaling-stroke" d="
  M 41.75 482.21
  Q 41.18 482.05 40.63 481.99
  Q 40.07 481.92 39.56 481.66
  Q 36.45 480.09 33.75 482.50
  Q 32.00 484.07 31.29 485.25"
/>
<path stroke="#169630" vector-effect="non-scaling-stroke" d="
  M 106.69 512.00
  Q 105.89 511.00 105.59 509.74
  Q 105.47 509.22 105.18 508.87
  Q 94.38 495.75 85.75 481.10
  Q 85.65 480.93 85.20 479.98
  Q 84.49 478.50 83.73 479.80
  C 83.59 480.05 83.53 480.38 83.56 480.75
  Q 83.83 483.56 82.54 486.00"
/>
</g>
<path fill="#ededad" d="
  M 0.00 0.00
  Q 256.00 0.00 512.00 0.00
  Q 512.00 256.00 512.00 512.00
  Q 486.47 512.00 460.94 512.00
  Q 454.46 470.16 439.86 430.42
  Q 430.30 404.42 415.43 381.07
  Q 408.36 369.96 399.23 360.56
  Q 393.04 354.20 391.86 353.38
  Q 387.36 350.25 381.29 351.00
  Q 380.59 350.21 380.50 349.75
  Q 377.28 333.90 371.07 319.16
  C 370.91 318.80 371.11 318.38 371.48 318.26
  Q 390.50 312.18 404.10 298.45
  Q 410.88 291.60 415.93 282.42
  Q 430.30 256.31 426.96 225.50
  Q 423.49 193.54 402.96 169.00
  Q 402.17 165.07 399.34 162.41
  Q 397.36 160.56 397.27 160.47
  Q 394.45 157.57 392.44 156.31
  Q 389.59 154.53 388.17 153.17
  C 388.02 153.03 388.09 152.77 388.30 152.69
  Q 388.67 152.53 388.91 152.21
  Q 389.21 151.82 389.13 151.10
  Q 388.77 147.76 387.19 145.81
  Q 383.45 141.22 376.81 138.19
  Q 375.31 137.50 375.71 139.50
  Q 373.85 128.53 367.59 119.38
  Q 365.79 116.74 363.81 115.44
  Q 357.99 111.58 350.25 108.71
  Q 349.66 106.88 347.81 105.44
  Q 335.87 96.15 323.14 90.41
  Q 313.13 85.90 303.45 80.74
  C 303.17 80.59 302.83 80.58 302.54 80.71
  Q 289.68 86.57 276.56 83.94
  Q 237.62 76.14 200.75 86.54
  L 182.25 92.71
  Q 170.92 95.20 165.19 96.94
  Q 157.58 99.24 150.67 103.19
  C 149.97 103.60 150.00 104.64 150.72 105.15
  L 154.79 108.00
  Q 145.83 112.63 140.06 117.56
  Q 119.17 135.42 103.94 160.44
  Q 96.87 172.05 94.71 183.25
  Q 93.97 189.02 94.00 192.50
  Q 94.01 193.21 94.79 194.00
  Q 87.07 208.91 83.44 226.69
  Q 81.09 238.18 80.29 246.25
  Q 79.48 253.23 79.79 260.25
  Q 80.19 297.74 87.50 332.25
  Q 88.78 338.31 89.00 340.46
  Q 81.37 340.49 78.50 341.75
  Q 75.17 343.21 73.44 344.94
  Q 66.25 352.13 59.04 359.29
  Q 29.67 388.47 20.24 428.21
  Q 18.63 435.03 16.41 447.83
  Q 12.63 469.62 11.54 491.75
  Q 10.35 501.84 9.94 512.00
  Q 4.97 512.00 0.00 512.00
  Q 0.00 256.00 0.00 0.00
  Z
  M 18.80 262.63
  Q 16.56 272.26 17.50 280.50
  Q 17.84 283.49 18.24 293.10
  Q 18.25 293.27 18.32 293.37
  Q 18.49 293.66 18.67 293.39
  Q 18.75 293.28 18.76 293.09
  Q 19.10 286.30 19.04 279.50
  Q 19.02 277.65 19.70 274.10
  Q 20.69 268.92 19.09 262.63
  Q 18.94 262.04 18.80 262.63
  Z"
/>
<path fill="#42d4af" d="
  M 350.25 108.71
  Q 348.69 108.81 347.25 108.21
  Q 347.44 106.79 346.47 106.15
  Q 345.18 105.31 345.07 105.21
  Q 340.17 100.46 333.31 96.69
  Q 320.56 89.68 309.50 85.21
  L 303.78 82.16
  C 303.19 81.85 302.49 81.82 301.86 82.09
  Q 291.67 86.31 281.25 85.46
  Q 254.89 81.45 249.56 81.44
  Q 225.88 81.40 202.00 87.00
  Q 201.33 87.16 200.75 86.54
  Q 237.62 76.14 276.56 83.94
  Q 289.68 86.57 302.54 80.71
  C 302.83 80.58 303.17 80.59 303.45 80.74
  Q 313.13 85.90 323.14 90.41
  Q 335.87 96.15 347.81 105.44
  Q 349.66 106.88 350.25 108.71
  Z"
/>
<path fill="#58d5bc" d="
  M 281.25 85.46
  Q 278.83 87.55 278.31 90.50
  Q 277.66 94.26 277.51 94.78
  Q 275.55 101.26 275.19 108.96
  C 275.16 109.58 274.52 109.98 273.96 109.73
  Q 273.26 109.42 272.96 110.50
  Q 257.94 101.63 238.94 98.31
  Q 212.07 93.63 188.11 93.99
  Q 188.03 93.99 186.40 94.12
  Q 183.99 94.32 182.25 92.71
  L 200.75 86.54
  Q 201.33 87.16 202.00 87.00
  Q 225.88 81.40 249.56 81.44
  Q 254.89 81.45 281.25 85.46
  Z"
/>
<path fill="#5dc5e3" d="
  M 309.50 85.21
  Q 309.15 86.29 309.94 86.97
  Q 310.76 87.69 310.83 87.77
  Q 317.72 95.95 323.50 104.96
  Q 318.48 111.25 311.53 114.67
  Q 306.17 117.32 299.06 117.46
  Q 291.53 117.62 283.75 116.00
  Q 279.99 115.22 277.25 113.71
  L 272.96 110.50
  Q 273.26 109.42 273.96 109.73
  C 274.52 109.98 275.16 109.58 275.19 108.96
  Q 275.55 101.26 277.51 94.78
  Q 277.66 94.26 278.31 90.50
  Q 278.83 87.55 281.25 85.46
  Q 291.67 86.31 301.86 82.09
  C 302.49 81.82 303.19 81.85 303.78 82.16
  L 309.50 85.21
  Z"
/>
<path fill="#7cdfcc" d="
  M 309.50 85.21
  Q 320.56 89.68 333.31 96.69
  Q 340.17 100.46 345.07 105.21
  Q 345.18 105.31 346.47 106.15
  Q 347.44 106.79 347.25 108.21
  Q 335.95 105.84 328.50 105.50
  Q 324.69 105.32 323.50 104.96
  Q 317.72 95.95 310.83 87.77
  Q 310.76 87.69 309.94 86.97
  Q 309.15 86.29 309.50 85.21
  Z"
/>
<path fill="#00bab0" d="
  M 182.25 92.71
  Q 183.99 94.32 186.40 94.12
  Q 188.03 93.99 188.11 93.99
  Q 212.07 93.63 238.94 98.31
  Q 257.94 101.63 272.96 110.50
  L 277.25 113.71
  Q 257.22 113.78 237.25 115.21
  Q 230.26 115.46 219.00 116.50
  Q 195.97 118.63 175.50 127.54
  Q 174.75 126.58 175.26 125.71
  Q 175.57 125.17 175.59 124.81
  Q 175.86 119.07 172.64 114.99
  Q 170.58 112.38 166.43 110.78
  Q 162.86 109.41 159.07 108.69
  Q 158.97 108.67 157.04 108.00
  Q 155.98 107.62 154.79 108.00
  L 150.72 105.15
  C 150.00 104.64 149.97 103.60 150.67 103.19
  Q 157.58 99.24 165.19 96.94
  Q 170.92 95.20 182.25 92.71
  Z"
/>
<path fill="#00708c" d="
  M 323.50 104.96
  Q 324.69 105.32 328.50 105.50
  Q 335.95 105.84 347.25 108.21
  Q 348.69 108.81 350.25 108.71
  Q 357.99 111.58 363.81 115.44
  Q 365.79 116.74 367.59 119.38
  Q 373.85 128.53 375.71 139.50
  L 376.75 149.71
  Q 375.86 149.56 375.50 150.21
  L 367.00 154.46
  Q 349.96 164.17 334.00 175.53
  Q 319.29 186.01 317.73 187.16
  Q 307.32 194.79 300.31 202.06
  Q 293.32 209.32 288.85 218.33
  Q 287.89 220.28 287.96 222.50
  Q 284.88 221.17 282.00 221.50
  Q 281.44 221.57 281.50 222.21
  L 276.25 222.21
  Q 276.27 221.64 275.74 221.53
  Q 272.95 220.94 270.25 221.96
  Q 270.49 220.95 269.71 220.94
  Q 268.92 220.93 268.81 220.90
  Q 267.20 220.43 268.59 219.09
  Q 269.52 218.18 268.25 217.96
  L 269.79 216.00
  Q 271.20 215.28 271.87 213.84
  Q 274.73 207.70 276.21 201.16
  Q 277.67 194.69 278.01 189.31
  Q 278.37 183.39 277.25 177.25
  Q 274.10 160.04 262.81 147.19
  Q 262.34 146.65 262.34 146.21
  C 262.35 145.90 262.23 145.64 262.04 145.56
  Q 259.44 144.44 255.69 141.56
  Q 251.94 138.69 244.72 136.16
  C 244.41 136.06 244.19 135.81 244.13 135.51
  Q 243.89 134.24 244.92 134.62
  Q 246.12 135.08 245.04 134.38
  Q 243.59 133.44 242.16 133.27
  C 241.71 133.22 241.44 132.73 241.63 132.32
  Q 243.05 129.25 240.60 126.99
  C 239.98 126.41 239.95 125.44 240.53 124.83
  Q 243.62 121.52 239.82 118.41
  Q 238.29 117.16 239.69 116.78
  C 239.96 116.71 240.10 116.44 239.99 116.24
  Q 239.21 114.80 237.25 115.21
  Q 257.22 113.78 277.25 113.71
  Q 279.99 115.22 283.75 116.00
  Q 291.53 117.62 299.06 117.46
  Q 306.17 117.32 311.53 114.67
  Q 318.48 111.25 323.50 104.96
  Z"
/>
<path fill="#45cb93" d="
  M 175.50 127.54
  Q 157.28 136.96 141.00 149.46
  Q 139.14 150.13 137.75 151.54
  Q 124.43 161.47 112.50 173.04
  Q 110.82 173.25 109.81 172.15
  C 109.59 171.90 109.30 171.75 109.01 171.73
  Q 104.81 171.46 102.32 168.73
  C 101.82 168.19 100.94 168.31 100.61 168.96
  Q 97.25 175.53 95.77 182.65
  Q 95.47 184.14 94.71 183.25
  Q 96.87 172.05 103.94 160.44
  Q 119.17 135.42 140.06 117.56
  Q 145.83 112.63 154.79 108.00
  Q 155.98 107.62 157.04 108.00
  Q 158.97 108.67 159.07 108.69
  Q 162.86 109.41 166.43 110.78
  Q 170.58 112.38 172.64 114.99
  Q 175.86 119.07 175.59 124.81
  Q 175.57 125.17 175.26 125.71
  Q 174.75 126.58 175.50 127.54
  Z"
/>
<path fill="#005978" d="
  M 237.25 115.21
  Q 239.21 114.80 239.99 116.24
  C 240.10 116.44 239.96 116.71 239.69 116.78
  Q 238.29 117.16 239.82 118.41
  Q 243.62 121.52 240.53 124.83
  C 239.95 125.44 239.98 126.41 240.60 126.99
  Q 243.05 129.25 241.63 132.32
  C 241.44 132.73 241.71 133.22 242.16 133.27
  Q 243.59 133.44 245.04 134.38
  Q 246.12 135.08 244.92 134.62
  Q 243.89 134.24 244.13 135.51
  C 244.19 135.81 244.41 136.06 244.72 136.16
  Q 251.94 138.69 255.69 141.56
  Q 259.44 144.44 262.04 145.56
  C 262.23 145.64 262.35 145.90 262.34 146.21
  Q 262.34 146.65 262.81 147.19
  Q 274.10 160.04 277.25 177.25
  Q 278.37 183.39 278.01 189.31
  Q 277.67 194.69 276.21 201.16
  Q 274.73 207.70 271.87 213.84
  Q 271.20 215.28 269.79 216.00
  L 269.71 215.50
  Q 272.32 211.52 273.50 207.75
  Q 277.44 195.16 276.45 182.14
  Q 275.63 171.37 271.74 162.81
  Q 267.09 152.60 258.25 145.00
  Q 246.66 135.04 231.25 134.69
  Q 210.76 134.22 196.25 148.29
  Q 173.69 145.18 151.00 147.25
  Q 147.18 147.60 141.00 149.46
  Q 157.28 136.96 175.50 127.54
  Q 195.97 118.63 219.00 116.50
  Q 230.26 115.46 237.25 115.21
  Z"
/>
<path fill="#fefefe" d="
  M 269.71 215.50
  Q 265.37 220.14 257.81 223.06
  Q 242.04 229.16 226.75 226.75
  Q 221.29 225.89 215.75 222.54
  Q 207.26 216.39 200.81 208.36
  Q 194.17 200.10 191.23 190.96
  Q 186.11 174.99 190.94 158.19
  Q 192.41 153.06 196.25 148.29
  Q 210.76 134.22 231.25 134.69
  Q 246.66 135.04 258.25 145.00
  Q 267.09 152.60 271.74 162.81
  Q 275.63 171.37 276.45 182.14
  Q 277.44 195.16 273.50 207.75
  Q 272.32 211.52 269.71 215.50
  Z
  M 255.31 155.69
  Q 242.47 146.17 225.98 148.32
  Q 209.15 150.51 201.31 164.81
  Q 196.25 174.05 197.05 184.13
  Q 197.81 193.65 203.68 201.86
  Q 211.10 212.22 223.66 215.79
  Q 231.20 217.94 238.47 217.25
  Q 246.38 216.50 252.94 212.44
  Q 266.09 204.29 268.67 189.95
  Q 270.42 180.19 267.15 171.28
  Q 263.72 161.92 255.31 155.69
  Z"
/>
<path fill="#fefefe" d="
  M 402.96 169.00
  Q 398.63 164.30 392.06 158.19
  Q 385.32 151.91 376.75 149.71
  L 375.71 139.50
  Q 375.31 137.50 376.81 138.19
  Q 383.45 141.22 387.19 145.81
  Q 388.77 147.76 389.13 151.10
  Q 389.21 151.82 388.91 152.21
  Q 388.67 152.53 388.30 152.69
  C 388.09 152.77 388.02 153.03 388.17 153.17
  Q 389.59 154.53 392.44 156.31
  Q 394.45 157.57 397.27 160.47
  Q 397.36 160.56 399.34 162.41
  Q 402.17 165.07 402.96 169.00
  Z"
/>
<path fill="#00bfb4" d="
  M 196.25 148.29
  Q 192.41 153.06 190.94 158.19
  Q 186.11 174.99 191.23 190.96
  Q 194.17 200.10 200.81 208.36
  Q 207.26 216.39 215.75 222.54
  Q 216.72 224.43 218.75 225.29
  Q 218.60 226.80 217.19 227.94
  Q 215.65 229.17 208.69 235.19
  Q 200.70 242.08 195.69 253.12
  Q 187.52 271.16 186.79 291.00
  Q 186.20 306.15 192.69 320.81
  Q 199.21 335.55 194.69 351.73
  Q 191.49 363.21 182.31 371.81
  Q 179.39 374.55 176.00 375.04
  Q 173.90 373.70 171.19 370.56
  Q 154.52 351.32 145.66 328.14
  Q 145.21 326.97 144.68 328.11
  Q 140.12 337.93 131.39 347.37
  C 130.86 347.95 129.93 347.90 129.46 347.26
  Q 125.57 341.95 122.57 335.08
  Q 109.62 305.48 104.87 273.48
  Q 102.96 260.67 103.75 249.00
  Q 105.50 223.05 113.71 197.25
  Q 121.77 178.41 132.81 158.31
  Q 135.05 154.24 137.75 151.54
  Q 139.14 150.13 141.00 149.46
  Q 147.18 147.60 151.00 147.25
  Q 173.69 145.18 196.25 148.29
  Z"
/>
<path fill="#000000" d="
  M 255.31 155.69
  Q 263.72 161.92 267.15 171.28
  Q 270.42 180.19 268.67 189.95
  Q 266.09 204.29 252.94 212.44
  Q 246.38 216.50 238.47 217.25
  Q 231.20 217.94 223.66 215.79
  Q 211.10 212.22 203.68 201.86
  Q 197.81 193.65 197.05 184.13
  Q 196.25 174.05 201.31 164.81
  Q 209.15 150.51 225.98 148.32
  Q 242.47 146.17 255.31 155.69
  Z
  M 240.07 150.62
  L 235.50 150.47
  Q 234.93 150.45 234.55 150.28
  Q 232.60 149.38 230.63 149.81
  Q 227.63 150.48 227.12 150.49
  Q 225.18 150.53 223.25 150.50
  Q 220.54 150.45 220.75 152.00
  Q 221.06 154.35 222.36 153.06
  C 222.60 152.82 222.89 152.67 223.18 152.66
  Q 231.11 152.16 239.04 151.54
  Q 239.35 151.51 239.96 151.54
  Q 241.03 151.59 240.84 151.10
  C 240.74 150.82 240.43 150.63 240.07 150.62
  Z
  M 253.92 156.13
  Q 249.33 152.69 243.49 151.36
  C 243.16 151.28 242.83 151.34 242.57 151.51
  Q 241.22 152.40 242.76 152.68
  Q 243.09 152.74 243.71 152.57
  Q 244.61 152.32 245.01 153.09
  C 245.18 153.42 245.41 153.66 245.65 153.77
  Q 257.02 159.08 262.58 169.41
  Q 267.05 177.71 266.22 186.07
  Q 265.32 195.03 258.69 202.44
  Q 253.74 207.97 247.66 211.26
  Q 241.53 214.57 234.35 214.87
  Q 219.04 215.51 208.85 203.56
  Q 206.70 201.04 204.89 197.81
  Q 202.68 193.86 202.19 191.31
  Q 201.26 186.49 201.90 176.56
  Q 201.94 175.99 201.71 176.52
  Q 201.23 177.62 201.36 178.82
  C 201.40 179.19 201.31 179.52 201.13 179.72
  Q 200.24 180.71 199.76 178.73
  Q 199.46 177.45 198.91 178.65
  Q 197.79 181.10 198.30 183.85
  Q 198.84 186.70 198.85 186.80
  Q 200.40 198.75 208.31 205.94
  Q 215.41 212.39 222.81 214.44
  Q 228.58 216.04 235.62 215.92
  Q 242.73 215.81 248.14 213.70
  Q 261.51 208.47 266.16 193.72
  Q 268.78 185.41 267.00 175.75
  Q 265.74 168.91 261.97 163.99
  Q 258.69 159.70 253.92 156.13
  Z
  M 253.59 160.15
  Q 246.28 154.06 236.75 153.26
  Q 218.32 151.73 208.11 166.60
  Q 203.10 173.90 203.16 182.66
  Q 203.19 186.25 203.19 186.84
  Q 203.19 189.59 203.69 191.31
  Q 207.10 203.22 216.66 209.01
  Q 224.27 213.61 233.48 213.65
  Q 242.75 213.69 250.94 208.44
  Q 257.79 204.05 261.57 197.17
  Q 265.24 190.50 265.00 182.65
  Q 264.60 169.32 253.59 160.15
  Z
  M 199.82 175.93
  Q 199.98 171.70 199.58 175.76
  Q 199.47 176.90 199.76 176.18
  Q 199.81 176.07 199.82 175.93
  Z"
/>
<path fill="#000114" d="
  M 240.84 151.10
  Q 241.03 151.59 239.96 151.54
  Q 239.35 151.51 239.04 151.54
  Q 231.11 152.16 223.18 152.66
  C 222.89 152.67 222.60 152.82 222.36 153.06
  Q 221.06 154.35 220.75 152.00
  Q 220.54 150.45 223.25 150.50
  Q 225.18 150.53 227.12 150.49
  Q 227.63 150.48 230.63 149.81
  Q 232.60 149.38 234.55 150.28
  Q 234.93 150.45 235.50 150.47
  L 240.07 150.62
  C 240.43 150.63 240.74 150.82 240.84 151.10
  Z"
/>
<path fill="#000114" d="
  M 376.75 149.71
  Q 385.32 151.91 392.06 158.19
  Q 398.63 164.30 402.96 169.00
  Q 423.49 193.54 426.96 225.50
  Q 430.30 256.31 415.93 282.42
  Q 410.88 291.60 404.10 298.45
  Q 390.50 312.18 371.48 318.26
  C 371.11 318.38 370.91 318.80 371.07 319.16
  Q 377.28 333.90 380.50 349.75
  Q 380.59 350.21 381.29 351.00
  Q 381.34 351.26 381.50 351.46
  L 381.46 355.00
  Q 380.83 352.96 380.06 350.97
  Q 379.25 348.89 378.87 346.91
  Q 376.17 332.78 370.04 319.75
  Q 370.56 317.46 373.31 316.56
  Q 392.33 310.35 405.52 295.54
  Q 412.03 288.23 416.64 279.01
  Q 421.98 268.34 424.38 256.48
  Q 425.51 250.88 426.43 245.24
  Q 427.26 240.15 427.01 235.06
  Q 426.89 232.57 425.95 224.94
  Q 424.22 210.97 420.56 200.69
  Q 411.68 175.71 389.81 157.44
  Q 384.15 152.71 375.50 150.21
  Q 375.86 149.56 376.75 149.71
  Z"
/>
<path fill="#213857" d="
  M 375.50 150.21
  Q 384.15 152.71 389.81 157.44
  Q 411.68 175.71 420.56 200.69
  Q 424.22 210.97 425.95 224.94
  Q 426.89 232.57 427.01 235.06
  Q 427.26 240.15 426.43 245.24
  Q 425.51 250.88 424.38 256.48
  Q 421.98 268.34 416.64 279.01
  Q 412.03 288.23 405.52 295.54
  Q 392.33 310.35 373.31 316.56
  Q 370.56 317.46 370.04 319.75
  L 367.00 318.79
  Q 360.81 318.76 354.74 320.00
  Q 352.13 320.54 353.98 318.62
  Q 357.30 315.18 360.63 311.16
  Q 364.19 306.85 366.47 303.05
  Q 372.49 293.03 375.09 281.50
  Q 375.11 281.40 375.57 280.05
  Q 375.98 278.88 375.47 277.69
  C 375.33 277.37 375.29 277.05 375.34 276.77
  Q 376.70 269.70 376.50 260.75
  Q 376.35 253.96 374.50 248.79
  Q 375.22 248.25 375.94 246.19
  Q 379.08 237.21 379.84 229.71
  Q 380.01 228.02 380.63 225.89
  Q 381.25 223.76 381.25 222.00
  Q 381.25 214.71 381.25 207.42
  Q 381.25 204.93 380.42 202.73
  Q 379.07 199.17 378.44 198.31
  Q 376.24 195.34 375.06 190.19
  Q 373.86 184.89 370.01 179.93
  Q 368.92 178.53 367.61 176.15
  Q 366.20 173.59 364.44 172.81
  Q 362.87 172.12 362.18 170.31
  Q 361.79 169.30 360.03 167.91
  L 355.44 164.31
  C 355.23 164.15 354.98 164.10 354.78 164.17
  Q 351.91 165.28 354.56 163.06
  Q 357.72 160.42 366.68 155.42
  Q 367.80 154.80 367.00 154.46
  L 375.50 150.21
  Z"
/>
<path fill="#213857" d="
  M 261.97 163.99
  Q 265.74 168.91 267.00 175.75
  Q 268.78 185.41 266.16 193.72
  Q 261.51 208.47 248.14 213.70
  Q 242.73 215.81 235.62 215.92
  Q 228.58 216.04 222.81 214.44
  Q 215.41 212.39 208.31 205.94
  Q 200.40 198.75 198.85 186.80
  Q 198.84 186.70 198.30 183.85
  Q 197.79 181.10 198.91 178.65
  Q 199.46 177.45 199.76 178.73
  Q 200.24 180.71 201.13 179.72
  C 201.31 179.52 201.40 179.19 201.36 178.82
  Q 201.23 177.62 201.71 176.52
  Q 201.94 175.99 201.90 176.56
  Q 201.26 186.49 202.19 191.31
  Q 202.68 193.86 204.89 197.81
  Q 206.70 201.04 208.85 203.56
  Q 219.04 215.51 234.35 214.87
  Q 241.53 214.57 247.66 211.26
  Q 253.74 207.97 258.69 202.44
  Q 265.32 195.03 266.22 186.07
  Q 267.05 177.71 262.58 169.41
  Q 257.02 159.08 245.65 153.77
  C 245.41 153.66 245.18 153.42 245.01 153.09
  Q 244.61 152.32 243.71 152.57
  Q 243.09 152.74 242.76 152.68
  Q 241.22 152.40 242.57 151.51
  C 242.83 151.34 243.16 151.28 243.49 151.36
  Q 249.33 152.69 253.92 156.13
  Q 258.69 159.70 261.97 163.99
  Z
  M 200.90 189.06
  Q 200.80 187.93 200.72 186.81
  Q 200.66 185.97 200.23 186.46
  Q 199.75 187.00 199.78 189.37
  C 199.79 189.82 200.17 190.18 200.63 190.16
  Q 200.99 190.14 200.90 189.06
  Z"
/>
<path fill="#2da147" d="
  M 137.75 151.54
  Q 135.05 154.24 132.81 158.31
  Q 121.77 178.41 113.71 197.25
  Q 112.83 197.72 111.94 199.44
  Q 106.56 209.77 88.19 243.19
  Q 82.73 253.12 79.79 260.25
  Q 79.48 253.23 80.29 246.25
  Q 81.16 245.61 81.25 245.00
  Q 82.32 237.99 84.44 227.69
  Q 87.92 210.72 95.11 195.73
  Q 95.20 195.54 95.63 194.97
  Q 96.21 194.20 95.00 193.96
  Q 103.18 183.02 112.50 173.04
  Q 124.43 161.47 137.75 151.54
  Z"
/>
<path fill="#fefefe" d="
  M 253.59 160.15
  Q 264.60 169.32 265.00 182.65
  Q 265.24 190.50 261.57 197.17
  Q 257.79 204.05 250.94 208.44
  Q 242.75 213.69 233.48 213.65
  Q 224.27 213.61 216.66 209.01
  Q 207.10 203.22 203.69 191.31
  Q 203.19 189.59 203.19 186.84
  Q 203.19 186.25 203.16 182.66
  Q 203.10 173.90 208.11 166.60
  Q 218.32 151.73 236.75 153.26
  Q 246.28 154.06 253.59 160.15
  Z
  M 211.00 177.46
  Q 206.85 191.63 217.31 201.19
  Q 228.74 211.62 241.16 207.44
  Q 251.04 204.12 256.10 195.75
  Q 261.50 186.84 257.71 175.00
  Q 254.52 166.29 246.94 162.56
  Q 232.91 155.68 219.83 164.83
  Q 213.12 169.53 211.00 177.46
  Z"
/>
<path fill="#24304b" d="
  M 367.00 154.46
  Q 367.80 154.80 366.68 155.42
  Q 357.72 160.42 354.56 163.06
  Q 351.91 165.28 354.78 164.17
  C 354.98 164.10 355.23 164.15 355.44 164.31
  L 360.03 167.91
  Q 361.79 169.30 362.18 170.31
  Q 362.87 172.12 364.44 172.81
  Q 366.20 173.59 367.61 176.15
  Q 368.92 178.53 370.01 179.93
  Q 373.86 184.89 375.06 190.19
  Q 376.24 195.34 378.44 198.31
  Q 379.07 199.17 380.42 202.73
  Q 381.25 204.93 381.25 207.42
  Q 381.25 214.71 381.25 222.00
  Q 381.25 223.76 380.63 225.89
  Q 380.01 228.02 379.84 229.71
  Q 379.08 237.21 375.94 246.19
  Q 375.22 248.25 374.50 248.79
  Q 374.17 248.51 373.80 248.28
  Q 373.47 248.07 373.01 248.01
  Q 343.80 244.30 316.75 246.00
  Q 315.08 246.10 316.25 246.96
  Q 306.44 247.76 299.79 255.00
  Q 298.48 251.45 298.25 250.50
  Q 295.29 238.22 292.00 229.00
  Q 290.82 225.69 287.96 222.50
  Q 287.89 220.28 288.85 218.33
  Q 293.32 209.32 300.31 202.06
  Q 307.32 194.79 317.73 187.16
  Q 319.29 186.01 334.00 175.53
  Q 349.96 164.17 367.00 154.46
  Z"
/>
<path fill="#fc8740" d="
  M 257.71 175.00
  Q 256.31 175.59 256.19 177.18
  C 256.17 177.52 255.97 177.79 255.71 177.86
  L 249.96 179.25
  Q 247.18 170.08 237.70 168.24
  Q 230.65 166.87 225.03 171.29
  Q 216.89 177.70 219.79 188.00
  Q 219.49 188.55 219.44 189.18
  Q 219.40 189.65 219.17 189.26
  Q 218.43 188.04 218.19 186.68
  Q 217.91 185.17 217.48 184.07
  Q 216.91 182.60 216.78 181.00
  C 216.75 180.65 216.54 180.38 216.28 180.34
  L 213.97 179.99
  Q 213.41 179.90 213.13 179.71
  Q 212.38 179.20 212.56 180.00
  Q 212.68 180.55 212.24 180.41
  Q 211.70 180.23 211.97 179.24
  Q 212.55 177.14 211.00 177.46
  Q 213.12 169.53 219.83 164.83
  Q 232.91 155.68 246.94 162.56
  Q 254.52 166.29 257.71 175.00
  Z"
/>
<path fill="#000000" d="
  M 249.96 179.25
  Q 251.15 184.74 248.94 188.94
  Q 246.28 193.99 240.44 197.19
  Q 234.52 200.42 227.50 196.75
  Q 222.56 194.16 219.79 188.00
  Q 216.89 177.70 225.03 171.29
  Q 230.65 166.87 237.70 168.24
  Q 247.18 170.08 249.96 179.25
  Z
  M 243.99 174.74
  Q 240.62 173.09 238.50 177.00
  Q 236.57 180.56 238.27 184.34
  Q 239.30 186.61 241.09 187.33
  Q 243.42 188.26 245.69 186.19
  Q 249.84 182.38 247.55 178.22
  Q 246.25 175.85 243.99 174.74
  Z"
/>
<path fill="#71d369" d="
  M 112.50 173.04
  Q 103.18 183.02 95.00 193.96
  L 94.79 194.00
  Q 94.01 193.21 94.00 192.50
  Q 93.97 189.02 94.71 183.25
  Q 95.47 184.14 95.77 182.65
  Q 97.25 175.53 100.61 168.96
  C 100.94 168.31 101.82 168.19 102.32 168.73
  Q 104.81 171.46 109.01 171.73
  C 109.30 171.75 109.59 171.90 109.81 172.15
  Q 110.82 173.25 112.50 173.04
  Z"
/>
<path fill="#000114" d="
  M 199.76 176.18
  Q 199.47 176.90 199.58 175.76
  Q 199.98 171.70 199.82 175.93
  Q 199.81 176.07 199.76 176.18
  Z"
/>
<path fill="#fdfcc9" d="
  M 247.55 178.22
  Q 249.84 182.38 245.69 186.19
  Q 243.42 188.26 241.09 187.33
  Q 239.30 186.61 238.27 184.34
  Q 236.57 180.56 238.50 177.00
  Q 240.62 173.09 243.99 174.74
  Q 246.25 175.85 247.55 178.22
  Z"
/>
<path fill="#fb7035" d="
  M 257.71 175.00
  Q 261.50 186.84 256.10 195.75
  Q 251.04 204.12 241.16 207.44
  Q 228.74 211.62 217.31 201.19
  Q 206.85 191.63 211.00 177.46
  Q 212.55 177.14 211.97 179.24
  Q 211.70 180.23 212.24 180.41
  Q 212.68 180.55 212.56 180.00
  Q 212.38 179.20 213.13 179.71
  Q 213.41 179.90 213.97 179.99
  L 216.28 180.34
  C 216.54 180.38 216.75 180.65 216.78 181.00
  Q 216.91 182.60 217.48 184.07
  Q 217.91 185.17 218.19 186.68
  Q 218.43 188.04 219.17 189.26
  Q 219.40 189.65 219.44 189.18
  Q 219.49 188.55 219.79 188.00
  Q 222.56 194.16 227.50 196.75
  Q 234.52 200.42 240.44 197.19
  Q 246.28 193.99 248.94 188.94
  Q 251.15 184.74 249.96 179.25
  L 255.71 177.86
  C 255.97 177.79 256.17 177.52 256.19 177.18
  Q 256.31 175.59 257.71 175.00
  Z"
/>
<path fill="#000114" d="
  M 200.90 189.06
  Q 200.99 190.14 200.63 190.16
  C 200.17 190.18 199.79 189.82 199.78 189.37
  Q 199.75 187.00 200.23 186.46
  Q 200.66 185.97 200.72 186.81
  Q 200.80 187.93 200.90 189.06
  Z"
/>
<path fill="#018a1d" d="
  M 94.79 194.00
  L 95.00 193.96
  Q 96.21 194.20 95.63 194.97
  Q 95.20 195.54 95.11 195.73
  Q 87.92 210.72 84.44 227.69
  Q 82.32 237.99 81.25 245.00
  Q 81.16 245.61 80.29 246.25
  Q 81.09 238.18 83.44 226.69
  Q 87.07 208.91 94.79 194.00
  Z"
/>
<path fill="#009287" d="
  M 113.71 197.25
  Q 105.50 223.05 103.75 249.00
  Q 102.96 260.67 104.87 273.48
  Q 109.62 305.48 122.57 335.08
  Q 125.57 341.95 129.46 347.26
  C 129.93 347.90 130.86 347.95 131.39 347.37
  Q 140.12 337.93 144.68 328.11
  Q 145.21 326.97 145.66 328.14
  Q 154.52 351.32 171.19 370.56
  Q 173.90 373.70 176.00 375.04
  Q 169.35 376.42 162.59 376.71
  Q 155.58 377.00 151.44 377.30
  Q 145.86 377.71 140.25 377.54
  L 138.03 376.51
  Q 137.61 376.31 137.82 376.73
  Q 138.21 377.54 137.96 378.50
  Q 137.33 377.65 136.60 376.89
  Q 121.47 360.85 104.75 346.46
  Q 98.21 340.19 89.00 340.46
  Q 88.78 338.31 87.50 332.25
  Q 80.19 297.74 79.79 260.25
  Q 82.73 253.12 88.19 243.19
  Q 106.56 209.77 111.94 199.44
  Q 112.83 197.72 113.71 197.25
  Z"
/>
<path fill="#000114" d="
  M 269.71 215.50
  L 269.79 216.00
  L 268.25 217.96
  Q 265.22 220.87 261.41 222.63
  Q 256.47 224.92 251.26 226.32
  Q 245.37 227.90 240.70 228.49
  Q 229.44 229.91 218.75 225.29
  Q 216.72 224.43 215.75 222.54
  Q 221.29 225.89 226.75 226.75
  Q 242.04 229.16 257.81 223.06
  Q 265.37 220.14 269.71 215.50
  Z"
/>
<path fill="#004466" d="
  M 268.25 217.96
  Q 269.52 218.18 268.59 219.09
  Q 267.20 220.43 268.81 220.90
  Q 268.92 220.93 269.71 220.94
  Q 270.49 220.95 270.25 221.96
  Q 258.95 225.41 246.19 232.94
  Q 232.34 241.10 226.31 254.81
  Q 218.57 272.42 222.75 289.50
  Q 224.80 297.87 231.29 308.00
  Q 231.01 308.74 230.41 309.22
  C 230.16 309.43 230.02 309.72 230.05 309.99
  Q 231.38 322.21 236.23 333.51
  Q 238.01 337.67 244.25 351.00
  Q 247.56 358.08 251.44 368.91
  Q 251.46 368.99 252.78 371.98
  Q 253.76 374.22 253.77 376.75
  Q 253.78 381.06 258.00 381.29
  Q 259.95 382.78 262.50 382.71
  Q 259.50 382.16 259.99 383.37
  Q 260.23 383.96 261.17 384.41
  Q 268.64 388.01 276.06 391.69
  Q 281.44 394.36 284.16 395.82
  Q 284.31 395.90 288.45 397.92
  Q 291.75 399.53 293.69 402.06
  Q 294.42 403.02 293.25 403.29
  Q 284.92 397.14 275.55 392.72
  Q 267.63 388.98 259.97 384.76
  Q 256.28 382.73 254.25 382.50
  Q 214.39 378.02 207.25 376.50
  Q 198.56 374.66 189.75 373.46
  Q 188.76 372.92 187.79 373.50
  Q 185.41 372.47 182.84 372.98
  Q 182.72 373.01 182.80 372.92
  Q 191.91 363.44 194.96 353.54
  Q 196.32 349.11 196.72 347.52
  Q 197.43 344.65 197.50 341.25
  Q 197.74 330.41 193.83 321.07
  Q 192.17 317.10 192.14 317.02
  Q 190.26 312.07 188.75 307.00
  Q 188.09 304.79 188.00 303.75
  Q 187.45 297.64 187.32 291.50
  Q 187.30 290.51 186.79 291.00
  Q 187.52 271.16 195.69 253.12
  Q 200.70 242.08 208.69 235.19
  Q 215.65 229.17 217.19 227.94
  Q 218.60 226.80 218.75 225.29
  Q 229.44 229.91 240.70 228.49
  Q 245.37 227.90 251.26 226.32
  Q 256.47 224.92 261.41 222.63
  Q 265.22 220.87 268.25 217.96
  Z"
/>
<path fill="#000114" d="
  M 276.25 222.21
  Q 272.55 222.11 269.05 223.28
  Q 260.14 226.25 251.92 230.71
  Q 245.59 234.15 242.54 236.28
  Q 238.03 239.42 234.39 243.64
  Q 219.90 260.41 222.43 282.73
  Q 224.00 296.55 232.44 307.54
  Q 239.40 316.60 251.19 321.06
  Q 256.61 323.12 261.48 322.04
  Q 263.95 321.50 266.61 319.68
  Q 268.97 318.06 271.04 316.04
  Q 274.35 312.80 278.00 309.96
  Q 278.23 310.02 278.29 310.25
  Q 274.49 313.40 272.75 316.92
  Q 271.39 319.68 274.09 321.16
  Q 278.17 323.39 282.51 324.60
  Q 283.67 324.93 291.37 326.49
  Q 302.12 328.68 313.00 330.21
  Q 322.29 331.84 346.50 334.75
  Q 353.76 335.62 358.76 335.61
  Q 362.75 335.61 364.77 333.87
  Q 367.40 331.60 367.48 327.50
  Q 367.56 323.58 366.75 319.75
  Q 368.18 320.00 368.29 321.23
  Q 368.42 322.65 368.44 322.74
  Q 369.46 327.17 367.76 331.14
  Q 366.79 333.41 365.07 334.83
  Q 363.11 336.46 360.75 336.75
  Q 357.99 337.09 353.73 336.59
  Q 348.87 336.02 348.76 336.01
  Q 320.42 333.25 292.47 327.83
  Q 284.25 326.24 284.02 326.18
  Q 279.81 325.17 275.85 323.37
  Q 272.85 322.01 271.25 319.75
  Q 270.82 319.14 271.03 318.28
  Q 271.15 317.77 270.75 318.06
  L 265.79 321.50
  Q 260.48 324.49 255.75 323.50
  Q 241.36 320.48 231.29 308.00
  Q 224.80 297.87 222.75 289.50
  Q 218.57 272.42 226.31 254.81
  Q 232.34 241.10 246.19 232.94
  Q 258.95 225.41 270.25 221.96
  Q 272.95 220.94 275.74 221.53
  Q 276.27 221.64 276.25 222.21
  Z"
/>
<path fill="#000114" d="
  M 287.96 222.50
  Q 290.82 225.69 292.00 229.00
  Q 295.29 238.22 298.25 250.50
  Q 298.48 251.45 299.79 255.00
  L 300.55 257.71
  C 300.63 258.00 300.59 258.33 300.42 258.61
  L 288.06 280.57
  Q 286.92 282.60 288.97 283.88
  Q 294.28 287.20 300.23 288.81
  Q 307.99 290.90 315.93 291.48
  Q 322.84 291.98 331.09 290.41
  Q 350.78 286.66 369.94 278.69
  Q 371.34 278.10 371.96 277.50
  L 372.04 278.50
  Q 351.05 288.05 329.25 291.75
  Q 321.65 293.04 313.74 292.22
  Q 306.77 291.49 301.29 290.04
  Q 295.31 288.44 289.50 285.25
  Q 287.55 284.18 286.71 282.75
  Q 287.38 279.31 288.81 276.81
  Q 293.94 267.87 299.24 259.18
  C 299.54 258.69 299.61 258.08 299.43 257.53
  Q 295.99 247.21 293.75 237.75
  Q 293.22 235.52 291.86 231.88
  Q 289.76 226.24 289.69 226.11
  Q 287.37 221.84 281.50 222.21
  Q 281.44 221.57 282.00 221.50
  Q 284.88 221.17 287.96 222.50
  Z"
/>
<path fill="#fefefe" d="
  M 281.50 222.21
  Q 287.37 221.84 289.69 226.11
  Q 289.76 226.24 291.86 231.88
  Q 293.22 235.52 293.75 237.75
  Q 295.99 247.21 299.43 257.53
  C 299.61 258.08 299.54 258.69 299.24 259.18
  Q 293.94 267.87 288.81 276.81
  Q 287.38 279.31 286.71 282.75
  Q 283.67 283.45 285.06 285.69
  Q 286.38 287.81 289.14 289.44
  Q 294.90 292.85 300.29 296.27
  Q 301.35 296.94 300.20 297.43
  Q 294.61 299.84 289.04 302.26
  Q 283.57 304.63 279.25 308.71
  L 278.00 309.96
  Q 274.35 312.80 271.04 316.04
  Q 268.97 318.06 266.61 319.68
  Q 263.95 321.50 261.48 322.04
  Q 256.61 323.12 251.19 321.06
  Q 239.40 316.60 232.44 307.54
  Q 224.00 296.55 222.43 282.73
  Q 219.90 260.41 234.39 243.64
  Q 238.03 239.42 242.54 236.28
  Q 245.59 234.15 251.92 230.71
  Q 260.14 226.25 269.05 223.28
  Q 272.55 222.11 276.25 222.21
  L 281.50 222.21
  Z"
/>
<path fill="#000000" d="
  M 374.50 248.79
  Q 376.35 253.96 376.50 260.75
  Q 376.70 269.70 375.34 276.77
  C 375.29 277.05 375.33 277.37 375.47 277.69
  Q 375.98 278.88 375.57 280.05
  Q 375.11 281.40 375.09 281.50
  Q 372.49 293.03 366.47 303.05
  Q 364.19 306.85 360.63 311.16
  Q 357.30 315.18 353.98 318.62
  Q 352.13 320.54 354.74 320.00
  Q 360.81 318.76 367.00 318.79
  L 366.75 319.75
  Q 357.80 320.33 348.61 322.07
  Q 348.16 322.16 348.52 321.87
  Q 369.44 305.32 374.65 278.99
  C 374.71 278.70 374.54 278.42 374.27 278.35
  Q 373.17 278.08 372.04 278.50
  L 371.96 277.50
  Q 363.27 269.64 352.15 266.13
  Q 347.93 264.80 347.88 264.78
  Q 343.06 263.15 338.25 261.50
  Q 328.03 257.98 320.69 250.06
  Q 318.59 247.80 316.25 246.96
  Q 315.08 246.10 316.75 246.00
  Q 343.80 244.30 373.01 248.01
  Q 373.47 248.07 373.80 248.28
  Q 374.17 248.51 374.50 248.79
  Z"
/>
<path fill="#364464" d="
  M 316.25 246.96
  Q 318.59 247.80 320.69 250.06
  Q 328.03 257.98 338.25 261.50
  Q 343.06 263.15 347.88 264.78
  Q 347.93 264.80 352.15 266.13
  Q 363.27 269.64 371.96 277.50
  Q 371.34 278.10 369.94 278.69
  Q 350.78 286.66 331.09 290.41
  Q 322.84 291.98 315.93 291.48
  Q 307.99 290.90 300.23 288.81
  Q 294.28 287.20 288.97 283.88
  Q 286.92 282.60 288.06 280.57
  L 300.42 258.61
  C 300.59 258.33 300.63 258.00 300.55 257.71
  L 299.79 255.00
  Q 306.44 247.76 316.25 246.96
  Z"
/>
<path fill="#fdfcc9" d="
  M 18.80 262.63
  Q 18.94 262.04 19.09 262.63
  Q 20.69 268.92 19.70 274.10
  Q 19.02 277.65 19.04 279.50
  Q 19.10 286.30 18.76 293.09
  Q 18.75 293.28 18.67 293.39
  Q 18.49 293.66 18.32 293.37
  Q 18.25 293.27 18.24 293.10
  Q 17.84 283.49 17.50 280.50
  Q 16.56 272.26 18.80 262.63
  Z"
/>
<path fill="#e2e2e0" d="
  M 366.75 319.75
  Q 367.56 323.58 367.48 327.50
  Q 367.40 331.60 364.77 333.87
  Q 362.75 335.61 358.76 335.61
  Q 353.76 335.62 346.50 334.75
  Q 322.29 331.84 313.00 330.21
  Q 311.78 327.21 312.56 325.56
  Q 316.04 318.20 320.46 310.73
  C 320.76 310.21 320.49 309.55 319.91 309.42
  Q 307.19 306.41 293.75 306.54
  Q 286.44 306.61 279.75 309.46
  Q 279.76 308.90 279.25 308.71
  Q 283.57 304.63 289.04 302.26
  Q 294.61 299.84 300.20 297.43
  Q 301.35 296.94 300.29 296.27
  Q 294.90 292.85 289.14 289.44
  Q 286.38 287.81 285.06 285.69
  Q 283.67 283.45 286.71 282.75
  Q 287.55 284.18 289.50 285.25
  Q 295.31 288.44 301.29 290.04
  Q 306.77 291.49 313.74 292.22
  Q 321.65 293.04 329.25 291.75
  Q 351.05 288.05 372.04 278.50
  Q 373.17 278.08 374.27 278.35
  C 374.54 278.42 374.71 278.70 374.65 278.99
  Q 369.44 305.32 348.52 321.87
  Q 348.16 322.16 348.61 322.07
  Q 357.80 320.33 366.75 319.75
  Z"
/>
<path fill="#002342" d="
  M 187.79 373.50
  Q 186.89 376.57 184.69 382.69
  Q 178.40 400.19 173.23 420.10
  Q 173.22 420.16 172.61 421.84
  Q 172.04 423.41 172.73 424.88
  Q 173.54 426.63 173.57 426.72
  Q 178.09 440.43 180.04 454.75
  Q 183.17 476.92 183.31 499.51
  Q 183.32 500.67 184.09 499.78
  L 202.10 478.92
  Q 202.41 478.56 202.58 479.04
  L 206.93 491.60
  C 207.14 492.21 207.93 492.40 208.43 491.95
  Q 221.14 480.55 230.24 466.13
  Q 230.27 466.09 232.16 463.73
  Q 233.73 461.78 233.00 459.25
  Q 232.62 457.94 233.71 457.75
  L 234.63 461.92
  C 234.75 462.44 235.02 462.88 235.39 463.16
  Q 242.75 468.60 250.50 472.04
  Q 250.26 473.21 251.19 474.81
  Q 260.06 490.07 269.76 505.25
  Q 270.50 506.40 270.98 505.12
  Q 275.07 494.30 279.16 482.97
  Q 282.77 472.96 284.96 462.55
  C 285.03 462.21 285.25 461.95 285.52 461.86
  L 286.00 461.71
  Q 292.53 465.92 299.75 468.79
  Q 299.66 469.60 298.97 469.88
  C 298.71 469.98 298.57 470.25 298.64 470.49
  Q 303.11 486.33 310.70 501.59
  Q 311.60 503.41 312.33 501.52
  Q 317.56 487.89 320.66 471.33
  C 320.82 470.47 320.56 469.60 319.96 468.96
  Q 319.16 468.10 320.00 467.21
  Q 326.29 474.60 334.81 479.26
  C 335.05 479.39 335.35 479.29 335.46 479.04
  Q 337.08 475.29 338.00 469.00
  Q 340.16 454.20 340.50 446.79
  Q 341.92 445.87 342.36 447.44
  Q 342.53 448.07 342.29 449.05
  Q 341.70 451.47 341.58 453.94
  C 341.57 454.15 341.78 454.33 342.06 454.35
  L 345.27 454.54
  Q 346.46 454.61 345.76 453.64
  L 343.98 451.19
  C 343.79 450.93 343.83 450.57 344.07 450.37
  Q 344.53 449.97 344.94 450.56
  Q 351.73 460.48 358.56 467.44
  Q 359.43 468.32 360.34 467.54
  C 360.56 467.36 360.66 467.03 360.59 466.69
  Q 355.61 441.77 351.75 430.75
  Q 348.50 421.48 345.70 412.06
  Q 344.87 409.28 343.66 406.68
  Q 342.94 405.13 344.21 406.12
  Q 344.43 406.30 344.59 406.56
  Q 355.31 423.30 370.94 440.06
  Q 375.64 445.10 380.80 453.35
  Q 380.96 453.60 381.15 453.71
  Q 381.58 453.94 381.70 453.53
  Q 381.77 453.32 381.66 452.97
  Q 376.88 437.22 373.44 429.31
  Q 367.67 416.07 361.84 402.85
  Q 361.44 401.96 361.95 401.68
  C 362.18 401.55 362.53 401.66 362.77 401.94
  Q 369.43 409.53 376.56 416.69
  Q 383.18 423.33 391.01 428.51
  Q 391.58 428.88 391.37 428.24
  Q 386.50 412.86 383.75 396.75
  Q 381.93 386.07 374.80 366.37
  Q 374.71 366.13 374.51 365.79
  Q 373.91 364.79 375.21 365.25
  Q 383.51 386.74 387.25 409.50
  Q 387.96 413.82 392.06 427.05
  Q 395.01 436.56 395.98 441.08
  Q 397.51 448.22 398.25 455.50
  Q 401.09 483.69 402.19 512.00
  Q 277.81 512.00 153.44 512.00
  Q 159.57 496.78 164.36 481.08
  Q 176.02 442.82 160.19 406.31
  Q 152.76 389.18 140.25 377.54
  Q 145.86 377.71 151.44 377.30
  Q 155.58 377.00 162.59 376.71
  Q 169.35 376.42 176.00 375.04
  Q 179.39 374.55 182.31 371.81
  Q 191.49 363.21 194.69 351.73
  Q 199.21 335.55 192.69 320.81
  Q 186.20 306.15 186.79 291.00
  Q 187.30 290.51 187.32 291.50
  Q 187.45 297.64 188.00 303.75
  Q 188.09 304.79 188.75 307.00
  Q 190.26 312.07 192.14 317.02
  Q 192.17 317.10 193.83 321.07
  Q 197.74 330.41 197.50 341.25
  Q 197.43 344.65 196.72 347.52
  Q 196.32 349.11 194.96 353.54
  Q 191.91 363.44 182.80 372.92
  Q 182.72 373.01 182.84 372.98
  Q 185.41 372.47 187.79 373.50
  Z"
/>
<path fill="#fefefe" d="
  M 313.00 330.21
  Q 302.12 328.68 291.37 326.49
  Q 283.67 324.93 282.51 324.60
  Q 278.17 323.39 274.09 321.16
  Q 271.39 319.68 272.75 316.92
  Q 274.49 313.40 278.29 310.25
  L 279.75 309.46
  Q 286.44 306.61 293.75 306.54
  Q 307.19 306.41 319.91 309.42
  C 320.49 309.55 320.76 310.21 320.46 310.73
  Q 316.04 318.20 312.56 325.56
  Q 311.78 327.21 313.00 330.21
  Z"
/>
<path fill="#163454" d="
  M 231.29 308.00
  Q 241.36 320.48 255.75 323.50
  Q 260.48 324.49 265.79 321.50
  Q 266.17 321.44 266.25 321.67
  C 266.29 321.81 266.20 322.03 266.01 322.24
  Q 264.96 323.35 265.44 324.56
  Q 267.60 330.08 271.44 334.91
  Q 273.86 337.95 279.52 343.62
  Q 284.43 348.54 289.92 352.83
  Q 304.89 364.55 319.52 377.12
  Q 319.99 377.52 319.38 377.58
  Q 301.44 379.60 283.54 382.83
  Q 279.25 383.60 275.51 383.23
  Q 269.23 382.61 262.25 381.25
  Q 260.39 380.89 258.00 381.29
  Q 253.78 381.06 253.77 376.75
  Q 253.76 374.22 252.78 371.98
  Q 251.46 368.99 251.44 368.91
  Q 247.56 358.08 244.25 351.00
  Q 238.01 337.67 236.23 333.51
  Q 231.38 322.21 230.05 309.99
  C 230.02 309.72 230.16 309.43 230.41 309.22
  Q 231.01 308.74 231.29 308.00
  Z"
/>
<path fill="#364464" d="
  M 279.25 308.71
  Q 279.76 308.90 279.75 309.46
  L 278.29 310.25
  Q 278.23 310.02 278.00 309.96
  L 279.25 308.71
  Z"
/>
<path fill="#052e4d" d="
  M 366.75 319.75
  L 367.00 318.79
  L 370.04 319.75
  Q 376.17 332.78 378.87 346.91
  Q 379.25 348.89 380.06 350.97
  Q 380.83 352.96 381.46 355.00
  L 383.00 362.27
  C 383.10 362.74 382.74 363.20 382.22 363.25
  Q 378.54 363.64 375.21 365.25
  Q 373.91 364.79 374.51 365.79
  Q 374.71 366.13 374.80 366.37
  Q 381.93 386.07 383.75 396.75
  Q 386.50 412.86 391.37 428.24
  Q 391.58 428.88 391.01 428.51
  Q 383.18 423.33 376.56 416.69
  Q 369.43 409.53 362.77 401.94
  C 362.53 401.66 362.18 401.55 361.95 401.68
  Q 361.44 401.96 361.84 402.85
  Q 367.67 416.07 373.44 429.31
  Q 376.88 437.22 381.66 452.97
  Q 381.77 453.32 381.70 453.53
  Q 381.58 453.94 381.15 453.71
  Q 380.96 453.60 380.80 453.35
  Q 375.64 445.10 370.94 440.06
  Q 355.31 423.30 344.59 406.56
  Q 344.43 406.30 344.21 406.12
  Q 342.94 405.13 343.66 406.68
  Q 344.87 409.28 345.70 412.06
  Q 348.50 421.48 351.75 430.75
  Q 355.61 441.77 360.59 466.69
  C 360.66 467.03 360.56 467.36 360.34 467.54
  Q 359.43 468.32 358.56 467.44
  Q 351.73 460.48 344.94 450.56
  Q 344.53 449.97 344.07 450.37
  C 343.83 450.57 343.79 450.93 343.98 451.19
  L 345.76 453.64
  Q 346.46 454.61 345.27 454.54
  L 342.06 454.35
  C 341.78 454.33 341.57 454.15 341.58 453.94
  Q 341.70 451.47 342.29 449.05
  Q 342.53 448.07 342.36 447.44
  Q 341.92 445.87 340.50 446.79
  Q 338.16 442.97 334.06 437.44
  Q 321.50 420.47 307.85 399.46
  Q 306.06 396.71 303.94 395.56
  Q 295.08 390.78 283.90 386.60
  Q 278.79 384.69 273.36 383.94
  Q 267.95 383.20 262.50 382.71
  Q 259.95 382.78 258.00 381.29
  Q 260.39 380.89 262.25 381.25
  Q 269.23 382.61 275.51 383.23
  Q 279.25 383.60 283.54 382.83
  Q 301.44 379.60 319.38 377.58
  Q 319.99 377.52 319.52 377.12
  Q 304.89 364.55 289.92 352.83
  Q 284.43 348.54 279.52 343.62
  Q 273.86 337.95 271.44 334.91
  Q 267.60 330.08 265.44 324.56
  Q 264.96 323.35 266.01 322.24
  C 266.20 322.03 266.29 321.81 266.25 321.67
  Q 266.17 321.44 265.79 321.50
  L 270.75 318.06
  Q 271.15 317.77 271.03 318.28
  Q 270.82 319.14 271.25 319.75
  Q 272.85 322.01 275.85 323.37
  Q 279.81 325.17 284.02 326.18
  Q 284.25 326.24 292.47 327.83
  Q 320.42 333.25 348.76 336.01
  Q 348.87 336.02 353.73 336.59
  Q 357.99 337.09 360.75 336.75
  Q 363.11 336.46 365.07 334.83
  Q 366.79 333.41 367.76 331.14
  Q 369.46 327.17 368.44 322.74
  Q 368.42 322.65 368.29 321.23
  Q 368.18 320.00 366.75 319.75
  Z"
/>
<path fill="#01c8b5" d="
  M 89.00 340.46
  Q 98.21 340.19 104.75 346.46
  Q 89.37 364.30 75.04 383.00
  Q 74.14 382.88 73.70 383.59
  Q 73.26 384.29 73.21 384.35
  Q 69.23 389.05 65.95 394.26
  Q 65.73 394.62 65.25 394.90
  Q 64.67 395.24 64.28 395.79
  Q 53.41 410.73 46.21 427.75
  L 45.59 426.53
  C 45.44 426.22 45.20 426.01 44.96 425.96
  Q 39.05 424.68 33.00 424.73
  Q 27.86 424.78 24.01 421.96
  C 23.67 421.71 23.18 421.88 23.07 422.30
  Q 16.29 448.54 13.82 475.50
  Q 13.57 478.22 12.87 482.96
  Q 12.10 488.18 12.50 490.50
  Q 12.94 493.08 11.54 491.75
  Q 12.63 469.62 16.41 447.83
  Q 18.63 435.03 20.24 428.21
  Q 29.67 388.47 59.04 359.29
  Q 66.25 352.13 73.44 344.94
  Q 75.17 343.21 78.50 341.75
  Q 81.37 340.49 89.00 340.46
  Z"
/>
<path fill="#85d56d" d="
  M 104.75 346.46
  Q 121.47 360.85 136.60 376.89
  Q 137.33 377.65 137.96 378.50
  Q 146.86 389.41 152.81 404.19
  Q 160.82 424.07 160.04 444.25
  Q 159.19 461.88 151.35 477.64
  Q 144.62 491.19 136.19 501.69
  Q 131.30 507.78 128.69 512.00
  Q 118.81 512.00 108.94 512.00
  Q 109.20 511.34 108.66 510.90
  Q 108.09 510.45 108.03 510.39
  Q 93.16 494.19 83.18 474.55
  Q 82.38 472.97 82.55 474.74
  Q 83.07 480.12 82.54 486.00
  Q 82.00 499.00 82.44 512.00
  Q 69.19 512.00 55.94 512.00
  Q 56.08 511.82 56.29 511.74
  C 56.51 511.66 56.64 511.47 56.59 511.29
  L 55.63 507.72
  Q 55.50 507.24 55.33 507.72
  Q 54.54 509.87 53.69 512.00
  Q 47.94 512.00 42.19 512.00
  Q 42.14 499.76 44.41 487.74
  C 44.47 487.44 44.41 487.11 44.25 486.82
  L 41.75 482.21
  L 40.71 477.25
  Q 40.99 467.86 43.94 456.69
  Q 50.81 430.64 60.50 408.79
  Q 66.53 395.19 75.04 383.00
  Q 89.37 364.30 104.75 346.46
  Z"
/>
<path fill="#018a1d" d="
  M 460.94 512.00
  Q 460.44 512.00 459.94 512.00
  Q 459.61 507.84 458.75 503.77
  Q 457.20 496.52 457.05 495.66
  Q 454.42 481.05 450.06 465.69
  Q 443.20 441.46 434.16 419.54
  Q 425.17 397.74 412.11 378.11
  Q 402.34 363.44 390.44 353.56
  Q 386.93 350.65 381.50 351.46
  Q 381.34 351.26 381.29 351.00
  Q 387.36 350.25 391.86 353.38
  Q 393.04 354.20 399.23 360.56
  Q 408.36 369.96 415.43 381.07
  Q 430.30 404.42 439.86 430.42
  Q 454.46 470.16 460.94 512.00
  Z"
/>
<path fill="#33a140" d="
  M 381.50 351.46
  Q 386.93 350.65 390.44 353.56
  Q 402.34 363.44 412.11 378.11
  Q 425.17 397.74 434.16 419.54
  Q 443.20 441.46 450.06 465.69
  Q 454.42 481.05 457.05 495.66
  Q 457.20 496.52 458.75 503.77
  Q 459.61 507.84 459.94 512.00
  Q 431.06 512.00 402.19 512.00
  Q 401.09 483.69 398.25 455.50
  Q 397.51 448.22 395.98 441.08
  Q 395.01 436.56 392.06 427.05
  Q 387.96 413.82 387.25 409.50
  Q 383.51 386.74 375.21 365.25
  Q 378.54 363.64 382.22 363.25
  C 382.74 363.20 383.10 362.74 383.00 362.27
  L 381.46 355.00
  L 381.50 351.46
  Z"
/>
<path fill="#005476" d="
  M 189.75 373.46
  Q 189.17 373.48 188.71 373.76
  C 188.50 373.89 188.48 374.20 188.68 374.39
  Q 190.01 375.69 190.44 378.31
  Q 191.69 385.96 197.71 416.75
  Q 197.17 416.75 196.94 417.44
  Q 190.85 435.60 181.44 454.13
  Q 181.20 454.60 180.90 454.72
  Q 180.52 454.88 180.04 454.75
  Q 178.09 440.43 173.57 426.72
  Q 173.54 426.63 172.73 424.88
  Q 172.04 423.41 172.61 421.84
  Q 173.22 420.16 173.23 420.10
  Q 178.40 400.19 184.69 382.69
  Q 186.89 376.57 187.79 373.50
  Q 188.76 372.92 189.75 373.46
  Z"
/>
<path fill="#007394" d="
  M 189.75 373.46
  Q 198.56 374.66 207.25 376.50
  Q 214.39 378.02 254.25 382.50
  Q 256.28 382.73 259.97 384.76
  Q 267.63 388.98 275.55 392.72
  Q 284.92 397.14 293.25 403.29
  Q 300.85 409.02 307.41 415.89
  C 307.64 416.13 307.77 416.45 307.77 416.76
  L 307.79 438.75
  Q 307.66 447.81 305.02 456.46
  Q 303.26 462.25 301.21 467.94
  Q 300.84 468.96 299.75 468.79
  Q 292.53 465.92 286.00 461.71
  Q 284.24 460.49 282.44 458.31
  Q 270.10 443.43 264.66 425.40
  Q 264.42 424.61 264.21 422.54
  Q 264.06 421.08 263.46 419.71
  Q 263.25 419.22 263.24 419.75
  Q 263.11 427.78 261.00 437.25
  Q 256.96 455.40 251.50 470.25
  Q 250.99 471.62 250.50 472.04
  Q 242.75 468.60 235.39 463.16
  C 235.02 462.88 234.75 462.44 234.63 461.92
  L 233.71 457.75
  Q 229.60 442.98 227.25 436.25
  Q 223.70 426.11 221.62 415.58
  Q 220.88 411.84 221.25 409.00
  Q 221.33 408.39 221.19 408.09
  Q 220.86 407.38 220.76 408.31
  Q 220.56 410.20 220.25 411.25
  Q 215.00 428.91 206.47 445.32
  Q 205.63 446.92 205.17 445.18
  L 197.71 416.75
  Q 191.69 385.96 190.44 378.31
  Q 190.01 375.69 188.68 374.39
  C 188.48 374.20 188.50 373.89 188.71 373.76
  Q 189.17 373.48 189.75 373.46
  Z"
/>
<path fill="#01949e" d="
  M 140.25 377.54
  Q 152.76 389.18 160.19 406.31
  Q 176.02 442.82 164.36 481.08
  Q 159.57 496.78 153.44 512.00
  Q 150.06 512.00 146.69 512.00
  Q 148.58 508.35 150.04 504.50
  Q 156.37 489.97 160.79 474.75
  Q 164.35 466.03 164.34 456.72
  Q 164.34 450.91 164.34 450.78
  Q 164.46 445.19 164.27 439.60
  Q 164.25 439.09 164.31 438.38
  Q 164.52 435.89 163.52 437.33
  C 163.35 437.58 163.29 437.91 163.35 438.24
  Q 164.52 443.98 162.66 449.53
  Q 162.57 449.82 162.61 450.48
  L 163.04 456.50
  Q 162.51 451.15 161.50 455.75
  Q 161.13 457.43 160.00 457.46
  Q 160.16 452.84 161.00 446.00
  Q 161.21 444.32 160.04 444.25
  Q 160.82 424.07 152.81 404.19
  Q 146.86 389.41 137.96 378.50
  Q 138.21 377.54 137.82 376.73
  Q 137.61 376.31 138.03 376.51
  L 140.25 377.54
  Z"
/>
<path fill="#099b54" d="
  M 75.04 383.00
  Q 66.53 395.19 60.50 408.79
  Q 50.81 430.64 43.94 456.69
  Q 40.99 467.86 40.71 477.25
  Q 40.94 473.63 38.19 471.56
  Q 36.71 470.44 35.13 471.05
  C 35.01 471.10 34.84 471.02 34.72 470.87
  Q 34.59 470.70 34.29 470.75
  Q 38.07 448.64 46.21 427.75
  Q 53.41 410.73 64.28 395.79
  Q 64.67 395.24 65.25 394.90
  Q 65.73 394.62 65.95 394.26
  Q 69.23 389.05 73.21 384.35
  Q 73.26 384.29 73.70 383.59
  Q 74.14 382.88 75.04 383.00
  Z"
/>
<path fill="#004f70" d="
  M 262.50 382.71
  Q 267.95 383.20 273.36 383.94
  Q 278.79 384.69 283.90 386.60
  Q 295.08 390.78 303.94 395.56
  Q 306.06 396.71 307.85 399.46
  Q 321.50 420.47 334.06 437.44
  Q 338.16 442.97 340.50 446.79
  Q 340.16 454.20 338.00 469.00
  Q 337.08 475.29 335.46 479.04
  C 335.35 479.29 335.05 479.39 334.81 479.26
  Q 326.29 474.60 320.00 467.21
  Q 313.89 458.04 309.49 447.94
  Q 308.54 445.78 308.48 444.03
  Q 308.40 441.96 308.86 439.92
  Q 309.35 437.79 307.79 438.75
  L 307.77 416.76
  C 307.77 416.45 307.64 416.13 307.41 415.89
  Q 300.85 409.02 293.25 403.29
  Q 294.42 403.02 293.69 402.06
  Q 291.75 399.53 288.45 397.92
  Q 284.31 395.90 284.16 395.82
  Q 281.44 394.36 276.06 391.69
  Q 268.64 388.01 261.17 384.41
  Q 260.23 383.96 259.99 383.37
  Q 259.50 382.16 262.50 382.71
  Z"
/>
<path fill="#003f60" d="
  M 233.71 457.75
  Q 232.62 457.94 233.00 459.25
  Q 233.73 461.78 232.16 463.73
  Q 230.27 466.09 230.24 466.13
  Q 221.14 480.55 208.43 491.95
  C 207.93 492.40 207.14 492.21 206.93 491.60
  L 202.58 479.04
  Q 202.41 478.56 202.10 478.92
  L 184.09 499.78
  Q 183.32 500.67 183.31 499.51
  Q 183.17 476.92 180.04 454.75
  Q 180.52 454.88 180.90 454.72
  Q 181.20 454.60 181.44 454.13
  Q 190.85 435.60 196.94 417.44
  Q 197.17 416.75 197.71 416.75
  L 205.17 445.18
  Q 205.63 446.92 206.47 445.32
  Q 215.00 428.91 220.25 411.25
  Q 220.56 410.20 220.76 408.31
  Q 220.86 407.38 221.19 408.09
  Q 221.33 408.39 221.25 409.00
  Q 220.88 411.84 221.62 415.58
  Q 223.70 426.11 227.25 436.25
  Q 229.60 442.98 233.71 457.75
  Z"
/>
<path fill="#004163" d="
  M 286.00 461.71
  L 285.52 461.86
  C 285.25 461.95 285.03 462.21 284.96 462.55
  Q 282.77 472.96 279.16 482.97
  Q 275.07 494.30 270.98 505.12
  Q 270.50 506.40 269.76 505.25
  Q 260.06 490.07 251.19 474.81
  Q 250.26 473.21 250.50 472.04
  Q 250.99 471.62 251.50 470.25
  Q 256.96 455.40 261.00 437.25
  Q 263.11 427.78 263.24 419.75
  Q 263.25 419.22 263.46 419.71
  Q 264.06 421.08 264.21 422.54
  Q 264.42 424.61 264.66 425.40
  Q 270.10 443.43 282.44 458.31
  Q 284.24 460.49 286.00 461.71
  Z"
/>
<path fill="#42d4af" d="
  M 46.21 427.75
  Q 38.07 448.64 34.29 470.75
  L 31.29 485.25
  Q 28.71 499.19 22.69 512.00
  Q 16.31 512.00 9.94 512.00
  Q 10.35 501.84 11.54 491.75
  Q 12.94 493.08 12.50 490.50
  Q 12.10 488.18 12.87 482.96
  Q 13.57 478.22 13.82 475.50
  Q 16.29 448.54 23.07 422.30
  C 23.18 421.88 23.67 421.71 24.01 421.96
  Q 27.86 424.78 33.00 424.73
  Q 39.05 424.68 44.96 425.96
  C 45.20 426.01 45.44 426.22 45.59 426.53
  L 46.21 427.75
  Z"
/>
<path fill="#009287" d="
  M 160.79 474.75
  Q 160.93 473.32 160.75 471.89
  Q 160.56 470.33 160.86 469.12
  Q 162.44 462.90 163.04 456.50
  L 162.61 450.48
  Q 162.57 449.82 162.66 449.53
  Q 164.52 443.98 163.35 438.24
  C 163.29 437.91 163.35 437.58 163.52 437.33
  Q 164.52 435.89 164.31 438.38
  Q 164.25 439.09 164.27 439.60
  Q 164.46 445.19 164.34 450.78
  Q 164.34 450.91 164.34 456.72
  Q 164.35 466.03 160.79 474.75
  Z"
/>
<path fill="#003251" d="
  M 320.00 467.21
  Q 319.16 468.10 319.96 468.96
  C 320.56 469.60 320.82 470.47 320.66 471.33
  Q 317.56 487.89 312.33 501.52
  Q 311.60 503.41 310.70 501.59
  Q 303.11 486.33 298.64 470.49
  C 298.57 470.25 298.71 469.98 298.97 469.88
  Q 299.66 469.60 299.75 468.79
  Q 300.84 468.96 301.21 467.94
  Q 303.26 462.25 305.02 456.46
  Q 307.66 447.81 307.79 438.75
  Q 309.35 437.79 308.86 439.92
  Q 308.40 441.96 308.48 444.03
  Q 308.54 445.78 309.49 447.94
  Q 313.89 458.04 320.00 467.21
  Z"
/>
<path fill="#099b54" d="
  M 160.00 457.46
  Q 157.66 467.26 153.43 476.38
  Q 152.76 477.81 152.38 479.63
  Q 152.02 481.32 151.47 482.97
  C 151.37 483.27 151.35 483.60 151.42 483.92
  Q 152.30 488.09 150.32 493.69
  C 150.15 494.16 150.44 494.67 150.93 494.76
  Q 152.07 494.99 152.35 496.06
  Q 152.52 496.70 152.12 497.76
  Q 150.86 501.07 150.04 504.50
  Q 148.58 508.35 146.69 512.00
  Q 144.06 512.00 141.44 512.00
  Q 141.61 510.10 142.55 508.49
  C 142.71 508.20 142.80 507.88 142.79 507.56
  Q 142.74 505.20 143.30 502.95
  Q 144.20 499.31 144.32 498.46
  Q 144.83 494.88 145.36 491.30
  Q 145.44 490.81 145.13 491.20
  Q 140.03 497.70 135.01 504.26
  Q 134.98 504.30 133.40 506.16
  Q 131.27 508.66 130.69 512.00
  Q 129.69 512.00 128.69 512.00
  Q 131.30 507.78 136.19 501.69
  Q 144.62 491.19 151.35 477.64
  Q 159.19 461.88 160.04 444.25
  Q 161.21 444.32 161.00 446.00
  Q 160.16 452.84 160.00 457.46
  Z"
/>
<path fill="#00996d" d="
  M 163.04 456.50
  Q 162.44 462.90 160.86 469.12
  Q 160.56 470.33 160.75 471.89
  Q 160.93 473.32 160.79 474.75
  Q 156.37 489.97 150.04 504.50
  Q 150.86 501.07 152.12 497.76
  Q 152.52 496.70 152.35 496.06
  Q 152.07 494.99 150.93 494.76
  C 150.44 494.67 150.15 494.16 150.32 493.69
  Q 152.30 488.09 151.42 483.92
  C 151.35 483.60 151.37 483.27 151.47 482.97
  Q 152.02 481.32 152.38 479.63
  Q 152.76 477.81 153.43 476.38
  Q 157.66 467.26 160.00 457.46
  Q 161.13 457.43 161.50 455.75
  Q 162.51 451.15 163.04 456.50
  Z"
/>
<path fill="#00996d" d="
  M 34.29 470.75
  Q 34.59 470.70 34.72 470.87
  C 34.84 471.02 35.01 471.10 35.13 471.05
  Q 36.71 470.44 38.19 471.56
  Q 40.94 473.63 40.71 477.25
  L 41.75 482.21
  Q 41.18 482.05 40.63 481.99
  Q 40.07 481.92 39.56 481.66
  Q 36.45 480.09 33.75 482.50
  Q 32.00 484.07 31.29 485.25
  L 34.29 470.75
  Z"
/>
<path fill="#018a1d" d="
  M 108.94 512.00
  Q 107.81 512.00 106.69 512.00
  Q 105.89 511.00 105.59 509.74
  Q 105.47 509.22 105.18 508.87
  Q 94.38 495.75 85.75 481.10
  Q 85.65 480.93 85.20 479.98
  Q 84.49 478.50 83.73 479.80
  C 83.59 480.05 83.53 480.38 83.56 480.75
  Q 83.83 483.56 82.54 486.00
  Q 83.07 480.12 82.55 474.74
  Q 82.38 472.97 83.18 474.55
  Q 93.16 494.19 108.03 510.39
  Q 108.09 510.45 108.66 510.90
  Q 109.20 511.34 108.94 512.00
  Z"
/>
<path fill="#2aa143" d="
  M 106.69 512.00
  Q 94.56 512.00 82.44 512.00
  Q 82.00 499.00 82.54 486.00
  Q 83.83 483.56 83.56 480.75
  C 83.53 480.38 83.59 480.05 83.73 479.80
  Q 84.49 478.50 85.20 479.98
  Q 85.65 480.93 85.75 481.10
  Q 94.38 495.75 105.18 508.87
  Q 105.47 509.22 105.59 509.74
  Q 105.89 511.00 106.69 512.00
  Z"
/>
<path fill="#019b81" d="
  M 41.75 482.21
  L 44.25 486.82
  C 44.41 487.11 44.47 487.44 44.41 487.74
  Q 42.14 499.76 42.19 512.00
  Q 32.44 512.00 22.69 512.00
  Q 28.71 499.19 31.29 485.25
  Q 32.00 484.07 33.75 482.50
  Q 36.45 480.09 39.56 481.66
  Q 40.07 481.92 40.63 481.99
  Q 41.18 482.05 41.75 482.21
  Z"
/>
<path fill="#139e4c" d="
  M 141.44 512.00
  Q 136.06 512.00 130.69 512.00
  Q 131.27 508.66 133.40 506.16
  Q 134.98 504.30 135.01 504.26
  Q 140.03 497.70 145.13 491.20
  Q 145.44 490.81 145.36 491.30
  Q 144.83 494.88 144.32 498.46
  Q 144.20 499.31 143.30 502.95
  Q 142.74 505.20 142.79 507.56
  C 142.80 507.88 142.71 508.20 142.55 508.49
  Q 141.61 510.10 141.44 512.00
  Z"
/>
<path fill="#00996d" d="
  M 55.94 512.00
  Q 54.81 512.00 53.69 512.00
  Q 54.54 509.87 55.33 507.72
  Q 55.50 507.24 55.63 507.72
  L 56.59 511.29
  C 56.64 511.47 56.51 511.66 56.29 511.74
  Q 56.08 511.82 55.94 512.00
  Z"
/>
</svg>
